<svg width="24" height="25" viewBox="0 0 24 25" fill="none" xmlns="http://www.w3.org/2000/svg">
<path d="M12.9999 2.91691C10.6353 2.68982 8.26703 3.31193 6.31929 4.67183C4.37155 6.03172 2.97153 8.04058 2.36994 10.3386C1.76835 12.6367 2.00449 15.0739 3.03608 17.2137C4.06766 19.3535 5.82731 21.0562 7.9999 22.0169C9.25812 22.5859 10.6192 22.8921 11.9999 22.9169C14.1979 22.9171 16.3347 22.1931 18.0799 20.8569C18.2905 20.6963 18.4288 20.4587 18.4644 20.1962C18.5001 19.9337 18.4301 19.6678 18.2699 19.4569C18.1903 19.3512 18.0905 19.2623 17.9763 19.1955C17.8621 19.1286 17.7357 19.0851 17.6046 19.0674C17.4734 19.0497 17.3401 19.0582 17.2122 19.0925C17.0844 19.1267 16.9646 19.186 16.8599 19.2669C15.8228 20.0503 14.6104 20.5692 13.3276 20.7787C12.0449 20.9883 10.7304 20.8821 9.4979 20.4694C8.26541 20.0567 7.15203 19.3499 6.25409 18.4102C5.35615 17.4705 4.70069 16.3261 4.34443 15.0762C3.98817 13.8262 3.94182 12.5082 4.20941 11.2363C4.477 9.96443 5.05046 8.77688 5.88018 7.77642C6.7099 6.77596 7.77089 5.99273 8.97135 5.49449C10.1718 4.99625 11.4756 4.798 12.7699 4.91691C14.7786 5.1494 16.6297 6.11855 17.9652 7.63691C19.3007 9.15527 20.0257 11.115 19.9999 13.1369V13.8169C19.9987 14.0466 19.9513 14.2738 19.8604 14.4848C19.7696 14.6958 19.6371 14.8863 19.471 15.045C19.3048 15.2036 19.1084 15.3272 18.8935 15.4083C18.6785 15.4894 18.4494 15.5263 18.2199 15.5169C17.7621 15.4666 17.3404 15.2447 17.0398 14.8958C16.7392 14.547 16.582 14.0971 16.5999 13.6369V9.31691C16.5999 9.05169 16.4945 8.79734 16.307 8.6098C16.1195 8.42226 15.8651 8.31691 15.5999 8.31691C15.3557 8.31484 15.1193 8.40217 14.935 8.56243C14.7508 8.72269 14.6316 8.94481 14.5999 9.18691C13.6693 8.31049 12.4383 7.82381 11.1599 7.82691C10.2911 7.83342 9.43838 8.06223 8.68301 8.49153C7.92764 8.92084 7.29474 9.53636 6.84456 10.2795C6.39439 11.0226 6.14193 11.8686 6.11123 12.7369C6.08053 13.6052 6.27261 14.4669 6.66917 15.24C7.06574 16.013 7.65359 16.6717 8.37676 17.1533C9.09992 17.6349 9.93432 17.9234 10.8005 17.9912C11.6667 18.0591 12.5359 17.9041 13.3252 17.541C14.1145 17.1779 14.7978 16.6188 15.3099 15.9169C15.6002 16.3659 15.9868 16.7447 16.4417 17.0256C16.8967 17.3065 17.4084 17.4826 17.9399 17.541C18.4714 17.5994 19.0092 17.5387 19.5143 17.3633C20.0194 17.1879 20.479 16.9022 20.8599 16.5269C21.2265 16.1782 21.5169 15.7574 21.7131 15.2911C21.9093 14.8247 22.0069 14.3228 21.9999 13.8169V13.1369C22.0223 10.6239 21.1161 8.19106 19.4552 6.30501C17.7943 4.41897 15.4956 3.21247 12.9999 2.91691ZM11.1799 16.0069C10.5688 16.0069 9.97133 15.8257 9.46318 15.4861C8.95504 15.1466 8.55898 14.664 8.32511 14.0994C8.09123 13.5348 8.03004 12.9135 8.14927 12.3141C8.2685 11.7147 8.56279 11.1641 8.99494 10.7319C9.42708 10.2998 9.97767 10.0055 10.5771 9.88628C11.1765 9.76705 11.7978 9.82824 12.3624 10.0621C12.927 10.296 13.4096 10.692 13.7491 11.2002C14.0887 11.7083 14.2699 12.3058 14.2699 12.9169C14.2673 13.7356 13.9409 14.52 13.3619 15.099C12.783 15.6779 11.9986 16.0043 11.1799 16.0069Z" fill="#46A6F8"/>
</svg>
