<svg width="24" height="16" viewBox="0 0 24 16" fill="none" xmlns="http://www.w3.org/2000/svg">
<path d="M2.13477 15.5H22.1348C22.8223 15.5 23.3848 14.9375 23.3848 14.25C23.3848 13.5625 22.8223 13 22.1348 13H2.13477C1.44727 13 0.884766 13.5625 0.884766 14.25C0.884766 14.9375 1.44727 15.5 2.13477 15.5ZM2.13477 9.25H22.1348C22.8223 9.25 23.3848 8.6875 23.3848 8C23.3848 7.3125 22.8223 6.75 22.1348 6.75H2.13477C1.44727 6.75 0.884766 7.3125 0.884766 8C0.884766 8.6875 1.44727 9.25 2.13477 9.25ZM0.884766 1.75C0.884766 2.4375 1.44727 3 2.13477 3H22.1348C22.8223 3 23.3848 2.4375 23.3848 1.75C23.3848 1.0625 22.8223 0.5 22.1348 0.5H2.13477C1.44727 0.5 0.884766 1.0625 0.884766 1.75Z" fill="white"/>
</svg>
