<svg width="24" height="25" viewBox="0 0 24 25" fill="none" xmlns="http://www.w3.org/2000/svg">
<path d="M6.54 5.91699C6.6 6.80699 6.75 7.67699 6.99 8.50699L5.79 9.70699C5.38 8.50699 5.12 7.23699 5.03 5.91699H6.54ZM16.4 17.937C17.25 18.177 18.12 18.327 19 18.387V19.877C17.68 19.787 16.41 19.527 15.2 19.127L16.4 17.937ZM7.5 3.91699H4C3.45 3.91699 3 4.36699 3 4.91699C3 14.307 10.61 21.917 20 21.917C20.55 21.917 21 21.467 21 20.917V17.427C21 16.877 20.55 16.427 20 16.427C18.76 16.427 17.55 16.227 16.43 15.857C16.33 15.817 16.22 15.807 16.12 15.807C15.86 15.807 15.61 15.907 15.41 16.097L13.21 18.297C10.38 16.847 8.06 14.537 6.62 11.707L8.82 9.50699C9.1 9.22699 9.18 8.83699 9.07 8.48699C8.7 7.36699 8.5 6.16699 8.5 4.91699C8.5 4.36699 8.05 3.91699 7.5 3.91699Z" fill="#46A6F8"/>
</svg>
