<svg width="54" height="54" viewBox="0 0 54 54" fill="none" xmlns="http://www.w3.org/2000/svg">
<path d="M27.2358 0.563477C41.7337 0.563477 53.4858 12.3156 53.4858 26.8135C53.4858 41.3113 41.7337 53.0635 27.2358 53.0635C12.738 53.0635 0.98584 41.3113 0.98584 26.8135H6.23584C6.23584 38.4107 15.6386 47.8135 27.2358 47.8135C38.8331 47.8135 48.2358 38.4107 48.2358 26.8135C48.2358 15.2162 38.8331 5.81348 27.2358 5.81348C20.7678 5.81348 14.9823 8.73773 11.1315 13.3341L16.7358 18.9385H0.98584V3.18848L7.40921 9.60923C12.2208 4.07048 19.3188 0.563477 27.2358 0.563477ZM29.8608 13.6885V25.7241L38.3737 34.237L34.6593 37.9513L24.6108 27.8976V13.6885H29.8608Z" fill="#00B37A"/>
</svg>
