<svg width="37" height="29" viewBox="0 0 37 29" fill="none" xmlns="http://www.w3.org/2000/svg">
<path d="M29.3672 27.9128H23.4609C22.9969 27.9128 22.6172 27.5332 22.6172 27.0691V24.2566C22.6172 23.7925 22.9969 23.4128 23.4609 23.4128H29.3672C30.6117 23.4128 31.6172 22.4074 31.6172 21.1628V7.66284C31.6172 6.41831 30.6117 5.41284 29.3672 5.41284H23.4609C22.9969 5.41284 22.6172 5.03315 22.6172 4.56909V1.75659C22.6172 1.29253 22.9969 0.912842 23.4609 0.912842H29.3672C33.0938 0.912842 36.1172 3.93628 36.1172 7.66284V21.1628C36.1172 24.8894 33.0938 27.9128 29.3672 27.9128ZM26.0625 13.78L14.25 1.96753C13.1953 0.912842 11.3672 1.65112 11.3672 3.16284V9.91284H1.80469C0.869531 9.91284 0.117188 10.6652 0.117188 11.6003V18.3503C0.117188 19.2855 0.869531 20.0378 1.80469 20.0378H11.3672V26.7878C11.3672 28.2996 13.1953 29.0378 14.25 27.9832L26.0625 16.1707C26.7164 15.5097 26.7164 14.441 26.0625 13.78Z" fill="#F9DD99"/>
</svg>
