<svg width="35" height="42" viewBox="0 0 35 42" fill="none" xmlns="http://www.w3.org/2000/svg">
<path d="M28.4682 15.0977H24.6257V3.01432C24.6257 1.68516 23.5382 0.597656 22.209 0.597656H12.5423C11.2132 0.597656 10.1257 1.68516 10.1257 3.01432V15.0977H6.28315C4.13232 15.0977 3.04482 17.7077 4.56732 19.2302L15.6598 30.3227C16.6023 31.2652 18.1248 31.2652 19.0673 30.3227L30.1598 19.2302C31.6823 17.7077 30.619 15.0977 28.4682 15.0977ZM0.458984 39.2643C0.458984 40.5935 1.54648 41.681 2.87565 41.681H31.8757C33.2048 41.681 34.2923 40.5935 34.2923 39.2643C34.2923 37.9352 33.2048 36.8476 31.8757 36.8476H2.87565C1.54648 36.8476 0.458984 37.9352 0.458984 39.2643Z" fill="#FC6647"/>
</svg>
