<svg width="17" height="9" viewBox="0 0 17 9" fill="none" xmlns="http://www.w3.org/2000/svg">
<path d="M8.32242 8.35612C8.04983 8.35665 7.78565 8.26171 7.57576 8.08778L0.575758 2.25445C0.337505 2.05642 0.187677 1.77186 0.159234 1.46336C0.130791 1.15486 0.226063 0.847702 0.424091 0.609449C0.622119 0.371196 0.906683 0.221368 1.21518 0.192925C1.52368 0.164482 1.83084 0.259754 2.06909 0.457782L8.32242 5.68445L14.5758 0.64445C14.6951 0.547539 14.8324 0.475169 14.9798 0.431499C15.1272 0.387828 15.2818 0.373719 15.4346 0.389981C15.5875 0.406244 15.7356 0.452556 15.8706 0.526259C16.0055 0.599962 16.1245 0.699601 16.2208 0.819449C16.3276 0.939407 16.4085 1.08014 16.4584 1.23282C16.5084 1.38551 16.5262 1.54686 16.5109 1.70677C16.4956 1.86668 16.4474 2.02169 16.3693 2.16211C16.2913 2.30253 16.1851 2.42531 16.0574 2.52278L9.05742 8.15778C8.84149 8.30422 8.58271 8.37405 8.32242 8.35612Z" fill="#46A6F8"/>
</svg>
