<svg width="24" height="25" viewBox="0 0 24 25" fill="none" xmlns="http://www.w3.org/2000/svg">
<path d="M11.99 2.91699C6.47 2.91699 2 7.39699 2 12.917C2 18.437 6.47 22.917 11.99 22.917C17.52 22.917 22 18.437 22 12.917C22 7.39699 17.52 2.91699 11.99 2.91699ZM12 20.917C7.58 20.917 4 17.337 4 12.917C4 8.49699 7.58 4.91699 12 4.91699C16.42 4.91699 20 8.49699 20 12.917C20 17.337 16.42 20.917 12 20.917ZM15.5 11.917C16.33 11.917 17 11.247 17 10.417C17 9.58699 16.33 8.91699 15.5 8.91699C14.67 8.91699 14 9.58699 14 10.417C14 11.247 14.67 11.917 15.5 11.917ZM8.5 11.917C9.33 11.917 10 11.247 10 10.417C10 9.58699 9.33 8.91699 8.5 8.91699C7.67 8.91699 7 9.58699 7 10.417C7 11.247 7.67 11.917 8.5 11.917ZM12 18.417C14.33 18.417 16.31 16.957 17.11 14.917H6.89C7.69 16.957 9.67 18.417 12 18.417Z" fill="#46A6F8"/>
</svg>
