<svg width="18" height="18" viewBox="0 0 18 18" fill="none" xmlns="http://www.w3.org/2000/svg">
<path d="M8.1665 11.3519H9.83317V13.0186H8.1665V11.3519ZM8.1665 4.68522H9.83317V9.68522H8.1665V4.68522ZM8.9915 0.518555C4.3915 0.518555 0.666504 4.25189 0.666504 8.85189C0.666504 13.4519 4.3915 17.1852 8.9915 17.1852C13.5998 17.1852 17.3332 13.4519 17.3332 8.85189C17.3332 4.25189 13.5998 0.518555 8.9915 0.518555ZM8.99984 15.5186C5.3165 15.5186 2.33317 12.5352 2.33317 8.85189C2.33317 5.16855 5.3165 2.18522 8.99984 2.18522C12.6832 2.18522 15.6665 5.16855 15.6665 8.85189C15.6665 12.5352 12.6832 15.5186 8.99984 15.5186Z" fill="#EB5757"/>
</svg>
