<svg width="29" height="37" viewBox="0 0 29 37" fill="none" xmlns="http://www.w3.org/2000/svg">
<path d="M27.1291 19.6126C24.3816 12.4726 14.5991 12.0876 16.9616 1.71011C17.1366 0.940108 16.3141 0.345108 15.6491 0.747608C9.29656 4.49261 4.72906 12.0001 8.56156 21.8351C8.87656 22.6401 7.93156 23.3926 7.24906 22.8676C4.08156 20.4701 3.74906 17.0226 4.02906 14.5551C4.13406 13.6451 2.94406 13.2076 2.43656 13.9601C1.24656 15.7801 0.0390625 18.7201 0.0390625 23.1476C0.704063 32.9476 8.98156 35.9576 11.9566 36.3426C16.2091 36.8851 20.8116 36.0976 24.1191 33.0701C27.7591 29.6926 29.0891 24.3026 27.1291 19.6126ZM10.8891 28.4151C13.4091 27.8026 14.7041 25.9826 15.0541 24.3726C15.6316 21.8701 13.3741 19.4201 14.8966 15.4651C15.4741 18.7376 20.6191 20.7851 20.6191 24.3551C20.7591 28.7826 15.9641 32.5801 10.8891 28.4151Z" fill="#FC6647"/>
</svg>
