<svg width="59" height="43" viewBox="0 0 59 43" fill="none" xmlns="http://www.w3.org/2000/svg">
<path d="M42.363 0.8125C46.5402 0.8125 50.5463 2.47187 53.5 5.42557C56.4537 8.37927 58.113 12.3853 58.113 16.5625V27.0625C58.113 31.2397 56.4537 35.2457 53.5 38.1994C50.5463 41.1531 46.5402 42.8125 42.363 42.8125H16.113C11.9359 42.8125 7.9298 41.1531 4.9761 38.1994C2.02241 35.2457 0.363037 31.2397 0.363037 27.0625V16.5625C0.363037 12.3853 2.02241 8.37927 4.9761 5.42557C7.9298 2.47187 11.9359 0.8125 16.113 0.8125H42.363ZM42.363 6.0625H16.113C13.4191 6.0625 10.8283 7.09789 8.8764 8.95452C6.9245 10.8112 5.76086 13.347 5.62616 16.0375L5.61304 16.5625V27.0625C5.61303 29.7564 6.64843 32.3472 8.50506 34.2991C10.3617 36.251 12.8975 37.4147 15.588 37.5494L16.113 37.5625H42.363C45.0569 37.5625 47.6477 36.5271 49.5997 34.6705C51.5516 32.8138 52.7152 30.278 52.8499 27.5875L52.863 27.0625V16.5625C52.863 13.8686 51.8276 11.2778 49.971 9.32587C48.1144 7.37396 45.5785 6.21032 42.888 6.07563L42.363 6.0625ZM23.988 13.9375V19.1875H29.238V24.4375H23.9854L23.988 29.6875H18.738L18.7354 24.4375H13.488V19.1875H18.738V13.9375H23.988ZM44.988 24.4375V29.6875H39.738V24.4375H44.988ZM39.738 13.9375V19.1875H34.488V13.9375H39.738Z" fill="#FFB26A" fill-opacity="0.79"/>
</svg>
