<svg width="35" height="26" viewBox="0 0 35 26" fill="none" xmlns="http://www.w3.org/2000/svg">
<path d="M25.3958 0.0961914C27.9154 0.0961914 30.3318 1.09708 32.1133 2.87868C33.8949 4.66027 34.8958 7.07663 34.8958 9.59619V15.9295C34.8958 18.4491 33.8949 20.8654 32.1133 22.647C30.3318 24.4286 27.9154 25.4295 25.3958 25.4295H9.5625C7.04294 25.4295 4.62658 24.4286 2.84499 22.647C1.06339 20.8654 0.0625 18.4491 0.0625 15.9295V9.59619C0.0625 7.07663 1.06339 4.66027 2.84499 2.87868C4.62658 1.09708 7.04294 0.0961914 9.5625 0.0961914H25.3958ZM14.3125 8.01286H11.1458V11.1795H7.97917V14.3462H11.1442L11.1458 17.5129H14.3125L14.3109 14.3462H17.4792V11.1795H14.3125V8.01286ZM26.9792 14.3462H23.8125V17.5129H26.9792V14.3462ZM23.8125 8.01286H20.6458V11.1795H23.8125V8.01286Z" fill="#46A6F8"/>
</svg>
