<svg width="21" height="21" viewBox="0 0 21 21" fill="none" xmlns="http://www.w3.org/2000/svg">
<g clip-path="url(#clip0)">
<path d="M4.93242 12.503L4.23625 15.1019L1.69176 15.1558C0.931328 13.7453 0.5 12.1316 0.5 10.4168C0.5 8.75854 0.903281 7.19479 1.61812 5.81787H1.61867L3.88398 6.23318L4.87633 8.4849C4.66863 9.09041 4.55543 9.74041 4.55543 10.4168C4.55551 11.1508 4.68848 11.8542 4.93242 12.503Z" fill="#FBBB00"/>
<path d="M20.3252 8.54883C20.44 9.15375 20.4999 9.77848 20.4999 10.417C20.4999 11.1329 20.4246 11.8312 20.2812 12.5049C19.7944 14.7972 18.5224 16.7988 16.7604 18.2153L16.7598 18.2148L13.9065 18.0692L13.5027 15.5483C14.6719 14.8626 15.5857 13.7895 16.067 12.5049H10.7197V8.54883H16.145H20.3252Z" fill="#518EF8"/>
<path d="M16.7595 18.2149L16.7601 18.2155C15.0464 19.5929 12.8694 20.4171 10.4996 20.4171C6.69141 20.4171 3.38043 18.2886 1.69141 15.1562L4.93207 12.5034C5.77656 14.7572 7.95074 16.3617 10.4996 16.3617C11.5952 16.3617 12.6216 16.0655 13.5024 15.5485L16.7595 18.2149Z" fill="#28B446"/>
<path d="M16.883 2.71918L13.6434 5.37137C12.7319 4.8016 11.6544 4.47246 10.5 4.47246C7.89344 4.47246 5.67859 6.15047 4.87641 8.48512L1.61871 5.81809H1.61816C3.28246 2.6093 6.6352 0.416992 10.5 0.416992C12.9264 0.416992 15.1511 1.28129 16.883 2.71918Z" fill="#F14336"/>
</g>
<defs>
<clipPath id="clip0">
<rect width="20" height="20" fill="white" transform="translate(0.5 0.416992)"/>
</clipPath>
</defs>
</svg>
