<svg width="29" height="38" viewBox="0 0 29 38" fill="none" xmlns="http://www.w3.org/2000/svg">
<path d="M7.84779 28.5859C7.32804 26.3581 4.98304 24.5364 4.02054 23.3359C2.37237 21.2767 1.33945 18.7937 1.04075 16.1731C0.742057 13.5525 1.18974 10.9008 2.33223 8.52344C3.47473 6.14613 5.26555 4.13992 7.49841 2.73591C9.73127 1.33191 12.3153 0.587224 14.9529 0.587647C17.5905 0.588069 20.1744 1.33358 22.4068 2.7383C24.6392 4.14302 26.4294 6.14981 27.5711 8.52749C28.7128 10.9052 29.1597 13.557 28.8601 16.1775C28.5606 18.7981 27.5269 21.2807 25.878 23.3394C24.9155 24.5381 22.574 26.3599 22.0543 28.5859H7.84604H7.84779ZM21.951 32.0859V33.8359C21.951 34.7641 21.5823 35.6544 20.9259 36.3108C20.2695 36.9671 19.3793 37.3359 18.451 37.3359H11.451C10.5228 37.3359 9.63254 36.9671 8.97617 36.3108C8.31979 35.6544 7.95104 34.7641 7.95104 33.8359V32.0859H21.951ZM16.701 14.5946V7.58589L8.82604 18.0946H13.201V25.0946L21.076 14.5946H16.701Z" fill="#46A6F8"/>
</svg>
