<svg width="35" height="29" viewBox="0 0 35 29" fill="none" xmlns="http://www.w3.org/2000/svg">
<path d="M31.5 0.172028H3.5C1.575 0.172028 0.0175 1.74703 0.0175 3.67203L0 24.672C0 26.597 1.575 28.172 3.5 28.172H31.5C33.425 28.172 35 26.597 35 24.672V3.67203C35 1.74703 33.425 0.172028 31.5 0.172028ZM30.8 7.60953L18.4275 15.3445C17.8675 15.6945 17.1325 15.6945 16.5725 15.3445L4.2 7.60953C3.7625 7.32953 3.5 6.85703 3.5 6.34953C3.5 5.17703 4.7775 4.47703 5.775 5.08953L17.5 12.422L29.225 5.08953C30.2225 4.47703 31.5 5.17703 31.5 6.34953C31.5 6.85703 31.2375 7.32953 30.8 7.60953Z" fill="#FC6647"/>
</svg>
