<svg width="47" height="32" viewBox="0 0 47 32" fill="none" xmlns="http://www.w3.org/2000/svg">
<path d="M7.75313 13.6877C10.2535 13.6877 12.2865 11.6698 12.2865 9.18774C12.2865 6.70571 10.2535 4.68774 7.75313 4.68774C5.25271 4.68774 3.21979 6.70571 3.21979 9.18774C3.21979 11.6698 5.25271 13.6877 7.75313 13.6877ZM39.4865 13.6877C41.9869 13.6877 44.0198 11.6698 44.0198 9.18774C44.0198 6.70571 41.9869 4.68774 39.4865 4.68774C36.986 4.68774 34.9531 6.70571 34.9531 9.18774C34.9531 11.6698 36.986 13.6877 39.4865 13.6877ZM41.7531 15.9377H37.2198C35.9731 15.9377 34.8469 16.437 34.0252 17.2456C36.8798 18.7995 38.9056 21.6049 39.3448 24.9377H44.0198C45.2735 24.9377 46.2865 23.9323 46.2865 22.6877V20.4377C46.2865 17.9557 44.2535 15.9377 41.7531 15.9377ZM23.6198 15.9377C28.0044 15.9377 31.5531 12.4151 31.5531 8.06274C31.5531 3.7104 28.0044 0.187744 23.6198 0.187744C19.2352 0.187744 15.6865 3.7104 15.6865 8.06274C15.6865 12.4151 19.2352 15.9377 23.6198 15.9377ZM29.0598 18.1877H28.4719C26.9985 18.8909 25.3623 19.3127 23.6198 19.3127C21.8773 19.3127 20.2481 18.8909 18.7677 18.1877H18.1798C13.6748 18.1877 10.0198 21.8159 10.0198 26.2877V28.3127C10.0198 30.176 11.5427 31.6877 13.4198 31.6877H33.8198C35.6969 31.6877 37.2198 30.176 37.2198 28.3127V26.2877C37.2198 21.8159 33.5648 18.1877 29.0598 18.1877ZM13.2144 17.2456C12.3927 16.437 11.2665 15.9377 10.0198 15.9377H5.48646C2.98604 15.9377 0.953125 17.9557 0.953125 20.4377V22.6877C0.953125 23.9323 1.96604 24.9377 3.21979 24.9377H7.88771C8.33396 21.6049 10.3598 18.7995 13.2144 17.2456Z" fill="#12D589"/>
</svg>
