<svg width="40" height="28" viewBox="0 0 40 28" fill="none" xmlns="http://www.w3.org/2000/svg">
<path fill-rule="evenodd" clip-rule="evenodd" d="M28.2109 15.9774C30.6084 17.6049 32.2884 19.8099 32.2884 22.7499V27.9999H37.5384C38.5009 27.9999 39.2884 27.2124 39.2884 26.2499V22.7499C39.2884 18.9349 33.0409 16.6774 28.2109 15.9774Z" fill="#12D589"/>
<path d="M14.7891 14C18.6551 14 21.7891 10.866 21.7891 7C21.7891 3.13401 18.6551 0 14.7891 0C10.9231 0 7.78906 3.13401 7.78906 7C7.78906 10.866 10.9231 14 14.7891 14Z" fill="#12D589"/>
<path fill-rule="evenodd" clip-rule="evenodd" d="M25.2884 14C29.1559 14 32.2884 10.8675 32.2884 7C32.2884 3.1325 29.1559 0 25.2884 0C24.4659 0 23.6959 0.175 22.9609 0.42C24.4134 2.2225 25.2884 4.515 25.2884 7C25.2884 9.485 24.4134 11.7775 22.9609 13.58C23.6959 13.825 24.4659 14 25.2884 14Z" fill="#12D589"/>
<path fill-rule="evenodd" clip-rule="evenodd" d="M14.7891 15.75C10.1166 15.75 0.789062 18.095 0.789062 22.75V26.25C0.789062 27.2125 1.57656 28 2.53906 28H27.0391C28.0016 28 28.7891 27.2125 28.7891 26.25V22.75C28.7891 18.095 19.4616 15.75 14.7891 15.75Z" fill="#12D589"/>
</svg>
