<svg width="20" height="21" viewBox="0 0 20 21" fill="none" xmlns="http://www.w3.org/2000/svg">
<path d="M16 10.917H12V12.417H16V10.917Z" fill="#46A6F8"/>
<path d="M16 13.917H12V15.417H16V13.917Z" fill="#46A6F8"/>
<path d="M18 5.91699H13V2.91699C13 1.81699 12.1 0.916992 11 0.916992H9C7.9 0.916992 7 1.81699 7 2.91699V5.91699H2C0.9 5.91699 0 6.81699 0 7.91699V18.917C0 20.017 0.9 20.917 2 20.917H18C19.1 20.917 20 20.017 20 18.917V7.91699C20 6.81699 19.1 5.91699 18 5.91699ZM9 5.91699V2.91699H11V5.91699V7.91699H9V5.91699ZM18 18.917H2V7.91699H7C7 9.01699 7.9 9.91699 9 9.91699H11C12.1 9.91699 13 9.01699 13 7.91699H18V18.917Z" fill="#46A6F8"/>
<path d="M7 13.917C7.82843 13.917 8.5 13.2454 8.5 12.417C8.5 11.5886 7.82843 10.917 7 10.917C6.17157 10.917 5.5 11.5886 5.5 12.417C5.5 13.2454 6.17157 13.917 7 13.917Z" fill="#46A6F8"/>
<path d="M9.08 15.097C8.44 14.817 7.74 14.667 7 14.667C6.26 14.667 5.56 14.817 4.92 15.097C4.36 15.337 4 15.877 4 16.487V16.917H10V16.487C10 15.877 9.64 15.337 9.08 15.097Z" fill="#46A6F8"/>
</svg>
