<svg width="19" height="18" viewBox="0 0 19 18" fill="none" xmlns="http://www.w3.org/2000/svg">
<path d="M7.97331 8.04393C9.99914 8.04393 11.64 6.4031 11.64 4.37727C11.64 2.35143 9.99914 0.710602 7.97331 0.710602C5.94747 0.710602 4.30664 2.35143 4.30664 4.37727C4.30664 6.4031 5.94747 8.04393 7.97331 8.04393ZM7.97331 2.54393C8.98164 2.54393 9.80664 3.36893 9.80664 4.37727C9.80664 5.3856 8.98164 6.2106 7.97331 6.2106C6.96497 6.2106 6.13997 5.3856 6.13997 4.37727C6.13997 3.36893 6.96497 2.54393 7.97331 2.54393Z" fill="#4D9FE6"/>
<path d="M2.47396 13.5439C2.67563 12.8839 5.50813 11.7106 7.97396 11.7106C7.97396 11.0689 8.09313 10.4548 8.29479 9.88643C5.79229 9.79476 0.640625 11.0414 0.640625 13.5439V15.3773H9.38563C8.90896 14.8456 8.53313 14.2314 8.29479 13.5439H2.47396Z" fill="#4D9FE6"/>
<path d="M16.6175 13.5623C16.9475 13.0214 17.14 12.3889 17.14 11.7106C17.14 9.68478 15.4991 8.04395 13.4733 8.04395C11.4475 8.04395 9.80664 9.68478 9.80664 11.7106C9.80664 13.7364 11.4475 15.3773 13.4733 15.3773C14.1516 15.3773 14.7841 15.1756 15.325 14.8548C16.1775 15.7073 16.81 16.3398 17.6808 17.2106L18.9733 15.9181C17.5983 14.5431 18.2491 15.1848 16.6175 13.5623ZM13.4733 13.5439C12.465 13.5439 11.64 12.7189 11.64 11.7106C11.64 10.7023 12.465 9.87728 13.4733 9.87728C14.4816 9.87728 15.3066 10.7023 15.3066 11.7106C15.3066 12.7189 14.4816 13.5439 13.4733 13.5439Z" fill="#4D9FE6"/>
</svg>
