<svg width="44" height="49" viewBox="0 0 44 49" fill="none" xmlns="http://www.w3.org/2000/svg">
<path d="M36.5391 34.8499C34.7024 34.8499 33.0591 35.5749 31.8024 36.7107L14.5716 26.6816C14.6924 26.1257 14.7891 25.5699 14.7891 24.9899C14.7891 24.4099 14.6924 23.8541 14.5716 23.2982L31.6091 13.3657C32.9141 14.5741 34.6299 15.3232 36.5391 15.3232C40.5507 15.3232 43.7891 12.0849 43.7891 8.07324C43.7891 4.06158 40.5507 0.823242 36.5391 0.823242C32.5274 0.823242 29.2891 4.06158 29.2891 8.07324C29.2891 8.65324 29.3857 9.20907 29.5066 9.76491L12.4691 19.6974C11.1641 18.4891 9.44823 17.7399 7.53906 17.7399C3.5274 17.7399 0.289062 20.9782 0.289062 24.9899C0.289062 29.0016 3.5274 32.2399 7.53906 32.2399C9.44823 32.2399 11.1641 31.4907 12.4691 30.2824L29.6757 40.3357C29.5549 40.8432 29.4824 41.3749 29.4824 41.9066C29.4824 45.7974 32.6482 48.9632 36.5391 48.9632C40.4299 48.9632 43.5957 45.7974 43.5957 41.9066C43.5957 38.0157 40.4299 34.8499 36.5391 34.8499Z" fill="#12D589"/>
</svg>
