<svg width="22" height="23" viewBox="0 0 22 23" fill="none" xmlns="http://www.w3.org/2000/svg">
<path d="M0.109375 22.0522C0.109375 19.8295 0.983623 17.6978 2.53979 16.126C4.09597 14.5543 6.20659 13.6713 8.40735 13.6713C10.6081 13.6713 12.7187 14.5543 14.2749 16.126C15.8311 17.6978 16.7053 19.8295 16.7053 22.0522H14.6308C14.6308 20.3852 13.9751 18.7864 12.808 17.6076C11.6409 16.4288 10.0579 15.7665 8.40735 15.7665C6.75678 15.7665 5.17381 16.4288 4.00668 17.6076C2.83955 18.7864 2.18387 20.3852 2.18387 22.0522H0.109375ZM8.40735 12.6237C4.96888 12.6237 2.18387 9.81082 2.18387 6.33796C2.18387 2.8651 4.96888 0.0522461 8.40735 0.0522461C11.8458 0.0522461 14.6308 2.8651 14.6308 6.33796C14.6308 9.81082 11.8458 12.6237 8.40735 12.6237ZM8.40735 10.5284C10.6997 10.5284 12.5563 8.6532 12.5563 6.33796C12.5563 4.02272 10.6997 2.14748 8.40735 2.14748C6.11503 2.14748 4.25836 4.02272 4.25836 6.33796C4.25836 8.6532 6.11503 10.5284 8.40735 10.5284ZM16.9999 14.4078C18.4576 15.0708 19.6946 16.145 20.5624 17.5011C21.4302 18.8572 21.8917 20.4376 21.8916 22.0522H19.8171C19.8173 20.8412 19.4712 19.6558 18.8204 18.6387C18.1695 17.6215 17.2417 16.8159 16.1483 16.3186L16.9989 14.4078H16.9999ZM16.2863 2.58015C17.3313 3.01522 18.2249 3.75405 18.8535 4.70287C19.4821 5.65169 19.8175 6.76774 19.8171 7.90939C19.8175 9.34707 19.2857 10.733 18.3261 11.7948C17.3664 12.8567 16.0484 13.5178 14.6308 13.6482V11.5394C15.3994 11.4282 16.1124 11.0711 16.6652 10.5205C17.218 9.96995 17.5815 9.25487 17.7023 8.48027C17.8231 7.70568 17.6948 6.91237 17.3364 6.21681C16.9779 5.52125 16.4081 4.96008 15.7106 4.61567L16.2863 2.58015Z" fill="#12D589"/>
</svg>
