<svg width="16" height="14" viewBox="0 0 16 14" fill="none" xmlns="http://www.w3.org/2000/svg">
<path d="M2.35259 13.0242H13.6476C14.8026 13.0242 15.5226 11.7717 14.9451 10.7742L9.29759 1.01668C8.72009 0.0191796 7.28009 0.0191796 6.70259 1.01668L1.05509 10.7742C0.477591 11.7717 1.19759 13.0242 2.35259 13.0242ZM8.00009 7.77418C7.58759 7.77418 7.25009 7.43668 7.25009 7.02418V5.52418C7.25009 5.11168 7.58759 4.77418 8.00009 4.77418C8.41259 4.77418 8.75009 5.11168 8.75009 5.52418V7.02418C8.75009 7.43668 8.41259 7.77418 8.00009 7.77418ZM8.75009 10.7742H7.25009V9.27418H8.75009V10.7742Z" fill="#8A879B"/>
</svg>
