<svg width="26" height="19" viewBox="0 0 26 19" fill="none" xmlns="http://www.w3.org/2000/svg">
<path d="M18.6867 6.32191L24.6147 2.17129C24.6999 2.11153 24.8 2.07633 24.9038 2.06951C25.0077 2.06269 25.1115 2.08452 25.2038 2.13262C25.2961 2.18071 25.3734 2.25323 25.4274 2.34226C25.4813 2.43129 25.5098 2.53342 25.5096 2.63752V16.3744C25.5098 16.4785 25.4813 16.5806 25.4274 16.6696C25.3734 16.7587 25.2961 16.8312 25.2038 16.8793C25.1115 16.9274 25.0077 16.9492 24.9038 16.9424C24.8 16.9356 24.6999 16.9004 24.6147 16.8406L18.6867 12.69V17.4661C18.6867 17.7676 18.5669 18.0569 18.3536 18.2701C18.1404 18.4834 17.8511 18.6032 17.5495 18.6032H1.62934C1.32775 18.6032 1.03851 18.4834 0.825253 18.2701C0.611995 18.0569 0.492188 17.7676 0.492188 17.4661V1.54585C0.492187 1.24426 0.611995 0.955016 0.825253 0.741757C1.03851 0.528499 1.32775 0.408691 1.62934 0.408691H17.5495C17.8511 0.408691 18.1404 0.528499 18.3536 0.741757C18.5669 0.955016 18.6867 1.24426 18.6867 1.54585V6.32191ZM18.6867 9.91419L23.2353 13.0982V5.91253L18.6867 9.09657V9.91305V9.91419ZM2.7665 2.68301V16.3289H16.4124V2.68301H2.7665ZM5.04082 4.95732H7.31513V7.23164H5.04082V4.95732Z" fill="#12D589"/>
</svg>
