<svg width="23" height="23" viewBox="0 0 23 23" fill="none" xmlns="http://www.w3.org/2000/svg">
<path d="M15.9015 8.41992H14.444V3.83659C14.444 3.33242 14.0315 2.91992 13.5273 2.91992H9.86068C9.35651 2.91992 8.94401 3.33242 8.94401 3.83659V8.41992H7.48651C6.67068 8.41992 6.25818 9.40992 6.83568 9.98742L11.0432 14.1949C11.4007 14.5524 11.9782 14.5524 12.3357 14.1949L16.5432 9.98742C17.1207 9.40992 16.7173 8.41992 15.9015 8.41992ZM5.27734 17.5866C5.27734 18.0908 5.68984 18.5033 6.19401 18.5033H17.194C17.6982 18.5033 18.1107 18.0908 18.1107 17.5866C18.1107 17.0824 17.6982 16.6699 17.194 16.6699H6.19401C5.68984 16.6699 5.27734 17.0824 5.27734 17.5866Z" fill="white"/>
</svg>
