<svg width="16" height="16" viewBox="0 0 16 16" fill="none" xmlns="http://www.w3.org/2000/svg">
<path d="M6.18294 4.60856H9.51628V3.35856C9.51628 2.7817 9.68734 2.21779 10.0078 1.73815C10.3283 1.25851 10.7838 0.884669 11.3168 0.663914C11.8497 0.443158 12.4362 0.385399 13.002 0.497939C13.5677 0.610479 14.0874 0.888265 14.4953 1.29617C14.9032 1.70407 15.181 2.22377 15.2936 2.78955C15.4061 3.35533 15.3483 3.94177 15.1276 4.47472C14.9068 5.00767 14.533 5.46319 14.0534 5.78368C13.5737 6.10417 13.0098 6.27523 12.4329 6.27523H11.1829V9.60856H12.4329C13.0098 9.60856 13.5737 9.77962 14.0534 10.1001C14.533 10.4206 14.9068 10.8761 15.1276 11.4091C15.3483 11.942 15.4061 12.5285 15.2936 13.0942C15.181 13.66 14.9032 14.1797 14.4953 14.5876C14.0874 14.9955 13.5677 15.2733 13.002 15.3859C12.4362 15.4984 11.8497 15.4406 11.3168 15.2199C10.7838 14.9991 10.3283 14.6253 10.0078 14.1456C9.68734 13.666 9.51628 13.1021 9.51628 12.5252V11.2752H6.18294V12.5252C6.18294 13.1021 6.01188 13.666 5.6914 14.1456C5.37091 14.6253 4.91539 14.9991 4.38244 15.2199C3.84949 15.4406 3.26304 15.4984 2.69726 15.3859C2.13149 15.2733 1.61179 14.9955 1.20388 14.5876C0.79598 14.1797 0.518194 13.66 0.405654 13.0942C0.293113 12.5285 0.350873 11.942 0.571629 11.4091C0.792384 10.8761 1.16622 10.4206 1.64586 10.1001C2.12551 9.77962 2.68942 9.60856 3.26628 9.60856H4.51628V6.27523H3.26628C2.68942 6.27523 2.12551 6.10417 1.64586 5.78368C1.16622 5.46319 0.792384 5.00767 0.571629 4.47472C0.350873 3.94177 0.293113 3.35533 0.405654 2.78955C0.518194 2.22377 0.79598 1.70407 1.20388 1.29617C1.61179 0.888265 2.13149 0.610479 2.69726 0.497939C3.26304 0.385399 3.84949 0.443158 4.38244 0.663914C4.91539 0.884669 5.37091 1.25851 5.6914 1.73815C6.01188 2.21779 6.18294 2.7817 6.18294 3.35856V4.60856ZM4.51628 4.60856V3.35856C4.51628 3.11134 4.44297 2.86966 4.30561 2.6641C4.16826 2.45854 3.97304 2.29832 3.74463 2.20371C3.51622 2.1091 3.26489 2.08435 3.02241 2.13258C2.77994 2.18081 2.55721 2.29986 2.38239 2.47468C2.20758 2.64949 2.08853 2.87222 2.0403 3.1147C1.99206 3.35718 2.01682 3.60851 2.11143 3.83692C2.20604 4.06532 2.36625 4.26055 2.57181 4.3979C2.77738 4.53525 3.01905 4.60856 3.26628 4.60856H4.51628ZM4.51628 11.2752H3.26628C3.01905 11.2752 2.77738 11.3485 2.57181 11.4859C2.36625 11.6232 2.20604 11.8185 2.11143 12.0469C2.01682 12.2753 1.99206 12.5266 2.0403 12.7691C2.08853 13.0116 2.20758 13.2343 2.38239 13.4091C2.55721 13.5839 2.77994 13.703 3.02241 13.7512C3.26489 13.7994 3.51622 13.7747 3.74463 13.6801C3.97304 13.5855 4.16826 13.4253 4.30561 13.2197C4.44297 13.0141 4.51628 12.7725 4.51628 12.5252V11.2752ZM11.1829 4.60856H12.4329C12.6802 4.60856 12.9218 4.53525 13.1274 4.3979C13.333 4.26055 13.4932 4.06532 13.5878 3.83692C13.6824 3.60851 13.7072 3.35718 13.6589 3.1147C13.6107 2.87222 13.4916 2.64949 13.3168 2.47468C13.142 2.29986 12.9193 2.18081 12.6768 2.13258C12.4343 2.08435 12.183 2.1091 11.9546 2.20371C11.7262 2.29832 11.531 2.45854 11.3936 2.6641C11.2563 2.86966 11.1829 3.11134 11.1829 3.35856V4.60856ZM11.1829 11.2752V12.5252C11.1829 12.7725 11.2563 13.0141 11.3936 13.2197C11.531 13.4253 11.7262 13.5855 11.9546 13.6801C12.183 13.7747 12.4343 13.7994 12.6768 13.7512C12.9193 13.703 13.142 13.5839 13.3168 13.4091C13.4916 13.2343 13.6107 13.0116 13.6589 12.7691C13.7072 12.5266 13.6824 12.2753 13.5878 12.0469C13.4932 11.8185 13.333 11.6232 13.1274 11.4859C12.9218 11.3485 12.6802 11.2752 12.4329 11.2752H11.1829ZM6.18294 6.27523V9.60856H9.51628V6.27523H6.18294Z" fill="#8A879B"/>
</svg>
