<svg width="28" height="34" viewBox="0 0 28 34" fill="none" xmlns="http://www.w3.org/2000/svg">
<path d="M14.4358 9.829C13.1218 9.829 11.0878 8.335 8.94585 8.389C6.11985 8.425 3.52785 10.027 2.06985 12.565C-0.864152 17.659 1.31385 25.183 4.17585 29.323C5.57985 31.339 7.23585 33.607 9.43185 33.535C11.5378 33.445 12.3298 32.167 14.8858 32.167C17.4238 32.167 18.1438 33.535 20.3758 33.481C22.6438 33.445 24.0838 31.429 25.4698 29.395C27.0718 27.055 27.7378 24.787 27.7738 24.661C27.7198 24.643 23.3638 22.969 23.3098 17.929C23.2738 13.717 26.7478 11.701 26.9098 11.611C24.9298 8.713 21.8878 8.389 20.8258 8.317C18.0538 8.101 15.7318 9.829 14.4358 9.829ZM19.1158 5.581C20.2858 4.177 21.0598 2.215 20.8438 0.270996C19.1698 0.342996 17.1538 1.387 15.9478 2.791C14.8678 4.033 13.9318 6.031 14.1838 7.939C16.0378 8.083 17.9458 6.985 19.1158 5.581Z" fill="white"/>
</svg>
