<svg width="21" height="25" viewBox="0 0 21 25" fill="none" xmlns="http://www.w3.org/2000/svg">
<path d="M10.3857 2.98796C9.52378 2.98796 8.69712 3.33037 8.08763 3.93986C7.47814 4.54935 7.13573 5.376 7.13573 6.23796V10.5713C7.13573 11.4332 7.47814 12.2599 8.08763 12.8694C8.69712 13.4789 9.52378 13.8213 10.3857 13.8213C11.2477 13.8213 12.0743 13.4789 12.6838 12.8694C13.2933 12.2599 13.6357 11.4332 13.6357 10.5713V6.23796C13.6357 5.376 13.2933 4.54935 12.6838 3.93986C12.0743 3.33037 11.2477 2.98796 10.3857 2.98796ZM10.3857 0.821289C11.0971 0.821289 11.8014 0.961395 12.4586 1.23361C13.1158 1.50582 13.7129 1.90481 14.2159 2.40779C14.7189 2.91078 15.1179 3.50791 15.3901 4.16509C15.6623 4.82227 15.8024 5.52663 15.8024 6.23796V10.5713C15.8024 12.0079 15.2317 13.3856 14.2159 14.4015C13.2001 15.4173 11.8223 15.988 10.3857 15.988C8.94914 15.988 7.57139 15.4173 6.55557 14.4015C5.53975 13.3856 4.96906 12.0079 4.96906 10.5713V6.23796C4.96906 4.80137 5.53975 3.42362 6.55557 2.40779C7.57139 1.39197 8.94914 0.821289 10.3857 0.821289ZM0.695312 11.6546H2.87823C3.14071 13.4581 4.04375 15.1069 5.42215 16.2992C6.80054 17.4915 8.56213 18.1476 10.3846 18.1476C12.2072 18.1476 13.9688 17.4915 15.3471 16.2992C16.7255 15.1069 17.6286 13.4581 17.8911 11.6546H20.0751C19.8287 13.8524 18.8429 15.9012 17.2792 17.4651C15.7155 19.029 13.6668 20.0151 11.4691 20.2617V24.6546H9.3024V20.2617C7.10446 20.0153 5.05549 19.0293 3.49159 17.4654C1.92768 15.9015 0.941676 13.8526 0.695312 11.6546Z" fill="#12D589"/>
</svg>
