<svg width="22" height="23" viewBox="0 0 22 23" fill="none" xmlns="http://www.w3.org/2000/svg">
<path d="M11 22.7378C4.9247 22.7378 0 17.8131 0 11.7378C0 5.66249 4.9247 0.737793 11 0.737793C17.0753 0.737793 22 5.66249 22 11.7378C22 17.8131 17.0753 22.7378 11 22.7378ZM11 20.5378C13.3339 20.5378 15.5722 19.6107 17.2225 17.9603C18.8729 16.31 19.8 14.0717 19.8 11.7378C19.8 9.40389 18.8729 7.16557 17.2225 5.51525C15.5722 3.86493 13.3339 2.93779 11 2.93779C8.66609 2.93779 6.42778 3.86493 4.77746 5.51525C3.12714 7.16557 2.2 9.40389 2.2 11.7378C2.2 14.0717 3.12714 16.31 4.77746 17.9603C6.42778 19.6107 8.66609 20.5378 11 20.5378ZM12.1 11.7378H16.5V13.9378H9.9V6.23779H12.1V11.7378Z" fill="#12D589"/>
</svg>
