<svg width="589" height="436" viewBox="0 0 589 436" fill="none" xmlns="http://www.w3.org/2000/svg">
<path d="M583.043 0.812988V3.81299H586V6.9773H589V0.812988H583.043Z" fill="#627789"/>
<path d="M589 19.3059V31.6345H586V19.3059H589Z" fill="#627789"/>
<path d="M589 56.1531V43.9631H586V56.1531H589Z" fill="#627789"/>
<path d="M589 191.906V204.235H586V191.906H589Z" fill="#627789"/>
<path d="M589 216.563V228.892H586V216.563H589Z" fill="#627789"/>
<path d="M589 241.22V253.549H586V241.22H589Z" fill="#627789"/>
<path d="M589 265.878V278.206H586V265.878H589Z" fill="#627789"/>
<path d="M589 290.535V302.863H586V290.535H589Z" fill="#627789"/>
<path d="M589 315.192V327.52H586V315.192H589Z" fill="#627789"/>
<path d="M589 339.849V352.178H586V339.849H589Z" fill="#627789"/>
<path d="M589 364.506V376.835H586V364.506H589Z" fill="#627789"/>
<path d="M589 389.163V395.328C589 397.098 588.885 398.842 588.662 400.552L585.687 400.164C585.894 398.582 586 396.968 586 395.328V389.163H589Z" fill="#627789"/>
<path d="M585.965 410.639C584.616 413.891 582.851 416.927 580.736 419.679L578.357 417.851C580.315 415.304 581.947 412.496 583.194 409.49L585.965 410.639Z" fill="#627789"/>
<path d="M573.352 427.064C570.599 429.179 567.564 430.944 564.312 432.292L563.162 429.521C566.169 428.275 568.977 426.642 571.523 424.685L573.352 427.064Z" fill="#627789"/>
<path d="M554.224 434.99C552.515 435.213 550.771 435.328 549 435.328H542.952V432.328H549C550.641 432.328 552.255 432.221 553.836 432.015L554.224 434.99Z" fill="#627789"/>
<path d="M240.212 435.328H228.465V432.328H240.212V435.328Z" fill="#627789"/>
<path d="M216.37 435.328H204.274V432.328H216.37V435.328Z" fill="#627789"/>
<path d="M192.178 435.328H180.083V432.328H192.178V435.328Z" fill="#627789"/>
<path d="M167.987 435.328H155.892V432.328H167.987V435.328Z" fill="#627789"/>
<path d="M143.796 435.328H131.7V432.328H143.796V435.328Z" fill="#627789"/>
<path d="M119.605 435.328H107.509V432.328H119.605V435.328Z" fill="#627789"/>
<path d="M95.4133 435.328H83.3176V432.328H95.4133V435.328Z" fill="#627789"/>
<path d="M71.222 435.328H59.1264V432.328H71.222V435.328Z" fill="#627789"/>
<path d="M47.0307 435.328H40.9829C39.2122 435.328 37.4684 435.213 35.7585 434.99L36.1465 432.015C37.7281 432.221 39.3423 432.328 40.9829 432.328H47.0307V435.328Z" fill="#627789"/>
<path d="M25.6714 432.292C22.4195 430.944 19.384 429.179 16.6315 427.064L18.4595 424.685C21.0065 426.642 23.8142 428.275 26.8205 429.521L25.6714 432.292Z" fill="#627789"/>
<path d="M9.24692 419.679C7.13176 416.927 5.36663 413.891 4.01812 410.639L6.78931 409.49C8.036 412.496 9.66843 415.304 11.6257 417.851L9.24692 419.679Z" fill="#627789"/>
<path d="M1.321 400.552C1.09796 398.842 0.98291 397.098 0.98291 395.328V389.419H3.98291V395.328C3.98291 396.968 4.0895 398.582 4.2958 400.164L1.321 400.552Z" fill="#627789"/>
<path d="M0.98291 377.602V365.785H3.98291V377.602H0.98291Z" fill="#627789"/>
<path d="M0.98291 353.968V342.15H3.98291V353.968H0.98291Z" fill="#627789"/>
<path d="M0.98291 46.2305H3.98291V40.813C3.98291 39.1724 4.0895 37.5582 4.2958 35.9767L1.321 35.5886C1.09796 37.2985 0.98291 39.0423 0.98291 40.813V46.2305Z" fill="#627789"/>
<path d="M4.01813 25.5015C5.36664 22.2496 7.13177 19.2141 9.24693 16.4616L11.6257 18.2896C9.66844 20.8366 8.036 23.6443 6.78931 26.6506L4.01813 25.5015Z" fill="#627789"/>
<path d="M16.6315 9.07702C19.384 6.96185 22.4195 5.19672 25.6714 3.84821L26.8206 6.61939C23.8142 7.86609 21.0065 9.49852 18.4595 11.4558L16.6315 9.07702Z" fill="#627789"/>
<path d="M40.9829 0.812988H46.9396V3.81299H40.9829C39.3423 3.81299 37.7281 3.91958 36.1466 4.12588L35.7585 1.15108C37.4684 0.928042 39.2122 0.812988 40.9829 0.812988Z" fill="#627789"/>
<path d="M58.853 0.812988H70.7663V3.81299H58.853V0.812988Z" fill="#627789"/>
<path d="M82.6798 0.812988H94.5932V3.81299H82.6798V0.812988Z" fill="#627789"/>
<path d="M106.507 0.812988H118.42V3.81299H106.507V0.812988Z" fill="#627789"/>
<path d="M130.333 0.812988H142.247V3.81299H130.333V0.812988Z" fill="#627789"/>
<path d="M154.16 0.812988H166.074V3.81299H154.16V0.812988Z" fill="#627789"/>
<path d="M177.987 0.812988H189.901V3.81299H177.987V0.812988Z" fill="#627789"/>
<path d="M201.814 0.812988H213.727V3.81299H201.814V0.812988Z" fill="#627789"/>
<path d="M225.641 0.812988H237.554V3.81299H225.641V0.812988Z" fill="#627789"/>
<path d="M249.468 0.812988H261.381V3.81299H249.468V0.812988Z" fill="#627789"/>
<path d="M273.294 0.812988H285.208V3.81299H273.294V0.812988Z" fill="#627789"/>
<path d="M297.121 0.812988H309.035V3.81299H297.121V0.812988Z" fill="#627789"/>
<path d="M320.948 0.812988H332.862V3.81299H320.948V0.812988Z" fill="#627789"/>
<path d="M344.775 0.812988H356.688V3.81299H344.775V0.812988Z" fill="#627789"/>
<path d="M368.602 0.812988H380.515V3.81299H368.602V0.812988Z" fill="#627789"/>
<path d="M392.429 0.812988H404.342V3.81299H392.429V0.812988Z" fill="#627789"/>
<path d="M416.256 0.812988H428.169V3.81299H416.256V0.812988Z" fill="#627789"/>
<path d="M440.082 0.812988H451.996V3.81299H440.082V0.812988Z" fill="#627789"/>
<path d="M463.909 0.812988H475.823V3.81299H463.909V0.812988Z" fill="#627789"/>
<path d="M487.736 0.812988H499.649V3.81299H487.736V0.812988Z" fill="#627789"/>
<path d="M511.563 0.812988H523.476V3.81299H511.563V0.812988Z" fill="#627789"/>
<path d="M535.39 0.812988H547.303V3.81299H535.39V0.812988Z" fill="#627789"/>
<path d="M559.217 0.812988H571.13V3.81299H559.217V0.812988Z" fill="#627789"/>
</svg>
