<svg width="1034" height="598" viewBox="0 0 1034 598" fill="none" xmlns="http://www.w3.org/2000/svg">
<path d="M95.4619 26.8318C95.4619 12.7039 106.665 1.25098 120.485 1.25098H912.553C926.373 1.25098 937.576 12.7039 937.576 26.8318V569.076C937.576 572.265 934.99 574.851 931.801 574.851H101.236C98.0473 574.851 95.4619 572.265 95.4619 569.076V26.8318Z" fill="black"/>
<circle cx="517" cy="22.4244" r="2.78725" fill="#0F0F0F" stroke="#151515" stroke-width="0.2"/>
<circle cx="516.711" cy="23.098" r="0.673691" fill="#16181E"/>
<circle cx="516.711" cy="22.1356" r="0.673691" fill="#0A0B0D"/>
<circle opacity="0.6" cx="517" cy="22.4243" r="0.962416" fill="#1F2531"/>
<path fill-rule="evenodd" clip-rule="evenodd" d="M94 26.8319C94 12.0392 105.737 0 120.274 0H912.342C926.879 0 938.616 12.0392 938.616 26.8319V569.076C938.616 572.957 935.471 576.102 931.59 576.102H101.026C97.1455 576.102 94 572.957 94 569.076V26.8319ZM120.274 2.50228C107.171 2.50228 96.5023 13.3689 96.5023 26.8319V569.076C96.5023 571.575 98.5275 573.6 101.026 573.6H931.59C934.089 573.6 936.114 571.575 936.114 569.076V26.8319C936.114 13.3689 925.445 2.50228 912.342 2.50228H120.274Z" fill="#6A6B6F" fill-opacity="0.5"/>
<path d="M605.543 579.663V574.37H428.458V579.663C429.26 580.786 432.789 583.031 440.488 583.031H593.512C601.212 583.031 604.74 580.786 605.543 579.663Z" fill="url(#paint0_linear)"/>
<path d="M428.458 574.37H0.182617V580.625H429.536C429.004 580.271 428.651 579.934 428.458 579.663V574.37Z" fill="url(#paint1_linear)"/>
<path d="M605.542 574.37V579.663C605.348 579.934 604.996 580.271 604.464 580.625H1033.82V574.37H605.542Z" fill="url(#paint2_linear)"/>
<path d="M428.905 580.144C430.235 581.326 433.778 583.031 440.488 583.031H593.512C600.222 583.031 603.765 581.326 605.095 580.144H1033.82C1024.99 586.239 993.588 597.468 938.538 597.468H95.4618C40.4116 597.468 9.00478 586.239 0.182617 580.144H428.905Z" fill="url(#paint3_linear)"/>
<path d="M96.4248 553.678H936.614V568.888C936.614 571.65 934.375 573.888 931.614 573.888H101.425C98.6634 573.888 96.4248 571.65 96.4248 568.888V553.678Z" fill="#101010"/>
<path d="M491.442 567.712V558.49H490.106L486.923 566.248H486.872L483.689 558.49H482.354V567.712H483.427V560.605H483.472L486.412 567.712H487.383L490.323 560.605H490.368V567.712H491.442Z" fill="#909092"/>
<path d="M494.81 567.827C495.704 567.827 496.548 567.329 496.944 566.568H496.97V567.712H498.024V563.117C498.024 561.794 497.04 560.95 495.481 560.95C493.909 560.95 492.924 561.832 492.848 562.983H493.921C494.062 562.331 494.599 561.928 495.455 561.928C496.375 561.928 496.912 562.414 496.912 563.226V563.782L495.008 563.89C493.474 563.98 492.598 564.695 492.598 565.833C492.598 567.028 493.487 567.827 494.81 567.827ZM495.059 566.881C494.26 566.881 493.73 566.466 493.73 565.833C493.73 565.207 494.241 564.81 495.136 564.753L496.912 564.644V565.188C496.912 566.146 496.107 566.881 495.059 566.881Z" fill="#909092"/>
<path d="M504.959 563.245C504.818 562.05 503.827 560.95 502.166 560.95C500.332 560.95 499.111 562.292 499.111 564.389C499.111 566.53 500.338 567.827 502.179 567.827C503.687 567.827 504.799 566.894 504.971 565.571H503.879C503.687 566.37 503.092 566.849 502.185 566.849C501.035 566.849 500.242 565.935 500.242 564.389C500.242 562.88 501.022 561.928 502.172 561.928C503.15 561.928 503.712 562.522 503.872 563.245H504.959Z" fill="#909092"/>
<path d="M509.65 567.712C511.612 567.712 512.775 566.747 512.775 565.124C512.775 563.897 511.97 563.015 510.717 562.855V562.804C511.605 562.644 512.308 561.749 512.308 560.791C512.308 559.41 511.241 558.49 509.662 558.49H506.167V567.712H509.65ZM507.317 559.506H509.4C510.519 559.506 511.145 560.011 511.145 560.925C511.145 561.922 510.404 562.465 509.043 562.465H507.317V559.506ZM507.317 566.696V563.456H509.368C510.838 563.456 511.593 563.999 511.593 565.066C511.593 566.133 510.864 566.696 509.477 566.696H507.317Z" fill="#909092"/>
<path d="M516.661 567.827C518.495 567.827 519.735 566.504 519.735 564.389C519.735 562.267 518.495 560.95 516.661 560.95C514.82 560.95 513.58 562.267 513.58 564.389C513.58 566.504 514.82 567.827 516.661 567.827ZM516.661 566.849C515.485 566.849 514.711 565.954 514.711 564.389C514.711 562.823 515.485 561.928 516.661 561.928C517.837 561.928 518.604 562.823 518.604 564.389C518.604 565.954 517.837 566.849 516.661 566.849Z" fill="#909092"/>
<path d="M523.614 567.827C525.448 567.827 526.688 566.504 526.688 564.389C526.688 562.267 525.448 560.95 523.614 560.95C521.773 560.95 520.534 562.267 520.534 564.389C520.534 566.504 521.773 567.827 523.614 567.827ZM523.614 566.849C522.438 566.849 521.665 565.954 521.665 564.389C521.665 562.823 522.438 561.928 523.614 561.928C524.79 561.928 525.557 562.823 525.557 564.389C525.557 565.954 524.79 566.849 523.614 566.849Z" fill="#909092"/>
<path d="M528.983 565.207L529.602 564.619L532.069 567.712H533.36L530.389 563.935L533.271 561.065H531.922L528.983 564.018V558.49H527.871V567.712H528.983V565.207Z" fill="#909092"/>
<path d="M543.017 567.712H544.225L540.825 558.49H539.688L536.288 567.712H537.495L538.422 565.073H542.091L543.017 567.712ZM540.237 559.889H540.276L541.752 564.095H538.761L540.237 559.889Z" fill="#909092"/>
<path d="M545.721 559.883C546.111 559.883 546.417 559.57 546.417 559.186C546.417 558.797 546.111 558.49 545.721 558.49C545.337 558.49 545.024 558.797 545.024 559.186C545.024 559.57 545.337 559.883 545.721 559.883ZM545.165 567.712H546.277V561.065H545.165V567.712Z" fill="#909092"/>
<path d="M547.779 567.712H548.891V563.571C548.891 562.631 549.453 562.011 550.316 562.011C550.584 562.011 550.821 562.043 550.91 562.075V560.995C550.821 560.982 550.655 560.95 550.463 560.95C549.683 560.95 549.07 561.417 548.852 562.152H548.827V561.065H547.779V567.712Z" fill="#909092"/>
<defs>
<linearGradient id="paint0_linear" x1="428.458" y1="577.257" x2="605.543" y2="577.257" gradientUnits="userSpaceOnUse">
<stop stop-color="#2E2F34"/>
<stop offset="0.116817" stop-color="#5C5D62"/>
<stop offset="0.253445" stop-color="#7E7F84"/>
<stop offset="0.505951" stop-color="#7E7F84"/>
<stop offset="0.734504" stop-color="#7E7F84"/>
<stop offset="0.908586" stop-color="#57585D"/>
<stop offset="1" stop-color="#303136"/>
</linearGradient>
<linearGradient id="paint1_linear" x1="0.182623" y1="577.744" x2="1033.82" y2="577.74" gradientUnits="userSpaceOnUse">
<stop stop-color="#3E3F43"/>
<stop offset="0.0244084" stop-color="#8A8B8F"/>
<stop offset="0.979558" stop-color="#8A8B8F"/>
<stop offset="1" stop-color="#46474B"/>
</linearGradient>
<linearGradient id="paint2_linear" x1="0.182623" y1="577.744" x2="1033.82" y2="577.74" gradientUnits="userSpaceOnUse">
<stop stop-color="#3E3F43"/>
<stop offset="0.0244084" stop-color="#8A8B8F"/>
<stop offset="0.979558" stop-color="#8A8B8F"/>
<stop offset="1" stop-color="#46474B"/>
</linearGradient>
<linearGradient id="paint3_linear" x1="517" y1="580.625" x2="517" y2="608.054" gradientUnits="userSpaceOnUse">
<stop stop-color="#55565A"/>
<stop offset="1"/>
</linearGradient>
</defs>
</svg>
