<svg width="232" height="278" viewBox="0 0 232 278" fill="none" xmlns="http://www.w3.org/2000/svg">
<path d="M136.737 277.534H28.4297V263.048H136.737V277.534Z" fill="#100A21"/>
<path d="M155.779 170.129C158.669 170.205 160.602 167.178 159.318 164.586L139.134 123.854C138.705 122.828 138.214 121.834 137.66 120.881L137.657 120.875V120.876C133.495 113.716 125.932 108.744 117.09 108.247L59.9109 105.033L59.8924 105.007L59.4677 105.015L59.3753 105.011C59.3134 105.011 59.2532 105.02 59.1912 105.021L49.7172 105.201C33.1623 105.516 18.2413 116.234 13.6662 132.147C13.4817 132.789 13.3137 133.438 13.1617 134.095L1.30518 174.324C0.491162 177.085 2.47336 179.88 5.3485 180.025L33.8319 181.461L24.6642 257.56C24.3043 260.543 26.6331 263.168 29.6368 263.168H137.541C139.981 263.168 141.95 261.171 141.915 258.731L141.875 169.735L155.779 170.129Z" fill="#697DC7"/>
<path d="M59.3654 105.309L59.3017 105.313L59.1951 105.319L49.724 105.499C33.0971 105.815 18.3873 116.807 13.9531 132.229C13.7711 132.863 13.6031 133.513 13.4527 134.162L1.59155 174.409C1.22964 175.636 1.44679 176.939 2.18729 177.984C2.92725 179.027 4.08572 179.663 5.36399 179.727L33.8483 181.164C33.9305 181.167 34.0073 181.206 34.061 181.269C34.114 181.332 34.1384 181.414 34.1283 181.496L24.9605 257.595C24.799 258.933 25.219 260.277 26.1126 261.284C27.0057 262.292 28.2913 262.87 29.6376 262.87H137.541C138.642 262.87 139.673 262.438 140.445 261.655C141.217 260.871 141.634 259.835 141.618 258.735L141.578 169.735C141.578 169.655 141.61 169.577 141.668 169.522C141.725 169.465 141.798 169.434 141.884 169.437L155.786 169.831C157.042 169.883 158.189 169.253 158.863 168.198C159.538 167.141 159.608 165.841 159.052 164.718L138.868 123.987C138.433 122.95 137.944 121.961 137.403 121.03C133.134 113.686 125.535 109.02 117.074 108.544L59.8944 105.33L59.795 105.307L59.4739 105.313L59.3654 105.309ZM137.541 263.466H29.6376C28.1203 263.466 26.6732 262.815 25.6664 261.68C24.6608 260.545 24.1878 259.031 24.3695 257.524L33.4992 181.742L5.33373 180.322C3.87233 180.249 2.54795 179.522 1.70159 178.328C0.854509 177.134 0.606207 175.644 1.02048 174.24L12.8768 134.011C13.0248 133.369 13.1958 132.709 13.3806 132.066C17.8865 116.393 32.8266 105.224 49.7127 104.903L59.2594 104.719L59.3762 104.714L59.4792 104.718L59.8879 104.709L60.0273 104.741L117.107 107.95C125.769 108.436 133.548 113.213 137.916 120.726C138.472 121.684 138.974 122.696 139.409 123.739L159.586 164.454C160.236 165.766 160.153 167.285 159.366 168.518C158.578 169.751 157.222 170.476 155.772 170.427H155.77L142.173 170.042L142.213 258.731C142.231 259.987 141.755 261.175 140.869 262.073C139.985 262.971 138.803 263.466 137.541 263.466Z" fill="#0A0B0B"/>
<path d="M172.913 133.273C176.408 126.867 177.6 119.124 174.458 112.33L170.435 113.797C170.435 113.797 166.585 102.704 165.963 94.6036C164.417 91.8483 153.231 97.6609 153.231 97.6609C153.231 97.6609 154.342 94.6369 154.897 93.1249C155.485 91.5224 156.083 89.8144 155.731 88.144C155.379 86.4735 153.666 84.9717 152.043 85.5025C150.446 86.025 147.422 92.643 146.468 94.2002C140.731 103.576 140.801 115.84 141.809 126.44C142.347 132.089 139.79 190.26 140.765 192.843C146.654 208.436 168.601 208.753 174.933 193.333C175.738 190.3 176.199 187.198 176.317 184.087C176.476 179.88 169.506 142.256 169.398 140.98C169.246 139.19 170.095 137.615 171.077 136.116C171.71 135.149 172.4 134.214 172.913 133.273Z" fill="#ECC07F"/>
<path d="M152.723 85.6911C152.535 85.6911 152.338 85.7191 152.134 85.7852C151.045 86.1421 148.905 90.2389 147.757 92.4396C147.312 93.2915 146.96 93.9647 146.721 94.3561C140.84 103.965 141.164 116.535 142.104 126.411C142.348 128.971 141.963 142.157 141.555 156.118C141.073 172.642 140.527 191.371 141.042 192.737C143.723 199.835 150.101 204.312 157.688 204.42C165.279 204.501 171.775 200.236 174.656 193.22C175.438 190.261 175.901 187.172 176.017 184.075C176.133 181.017 172.389 159.818 170.378 148.428C169.626 144.17 169.129 141.357 169.1 141.005C168.941 139.124 169.835 137.465 170.826 135.952C171.018 135.659 171.216 135.368 171.412 135.08C171.868 134.409 172.299 133.775 172.651 133.131C176.416 126.229 177.012 118.801 174.299 112.705L170.536 114.076C170.462 114.103 170.379 114.1 170.306 114.065C170.234 114.031 170.179 113.969 170.152 113.894C170.114 113.783 166.304 102.737 165.67 94.6968C164.539 92.9799 157.551 95.7507 153.367 97.9245C153.26 97.9811 153.125 97.9656 153.033 97.884C152.941 97.8024 152.908 97.6731 152.95 97.5575L154.616 93.0222C155.136 91.6056 155.784 89.8422 155.438 88.2051C155.253 87.3234 154.632 86.4643 153.857 86.0169C153.573 85.8531 153.177 85.6911 152.723 85.6911ZM157.969 205.018C157.872 205.018 157.777 205.017 157.68 205.016C149.843 204.904 143.254 200.279 140.485 192.948C139.966 191.574 140.337 177.467 140.959 156.1C141.367 142.159 141.751 128.991 141.511 126.468C140.562 116.499 140.24 103.804 146.213 94.0445C146.442 93.671 146.806 92.9722 147.228 92.1643C149.02 88.7317 150.73 85.6178 151.949 85.2193C152.654 84.9869 153.439 85.0882 154.154 85.501C155.083 86.0372 155.799 87.0261 156.021 88.0824C156.402 89.8863 155.722 91.739 155.176 93.2277L153.771 97.0518C156.394 95.7471 164.76 91.8498 166.222 94.4579L166.259 94.5807C166.815 101.831 170.017 111.622 170.618 113.412L174.355 112.05C174.498 111.998 174.662 112.064 174.727 112.205C177.648 118.521 177.082 126.252 173.173 133.415C172.808 134.085 172.349 134.761 171.904 135.415C171.71 135.701 171.515 135.988 171.324 136.279C170.247 137.924 169.557 139.348 169.693 140.955C169.72 141.28 170.242 144.235 170.965 148.325C172.98 159.736 176.73 180.976 176.613 184.097C176.495 187.238 176.026 190.372 175.219 193.409C172.267 200.604 165.68 205.018 157.969 205.018Z" fill="#0A0B0B"/>
<path d="M151.013 103.877L161.424 114.252L169.204 99.1398L167.545 92.2734L153.406 97.5242L151.013 103.877Z" fill="#0A0B0B"/>
<path d="M167.531 119.544C164.745 120.025 162.097 118.157 161.616 115.372L156.914 88.1339C156.433 85.3482 158.302 82.7002 161.088 82.2194C163.873 81.7386 166.521 83.6069 167.001 86.3925L171.704 113.63C172.185 116.416 170.317 119.063 167.531 119.544Z" fill="#FC6647"/>
<path d="M161.97 82.4414C161.694 82.4414 161.417 82.4652 161.14 82.5129C159.871 82.7321 158.763 83.4321 158.021 84.4836C157.278 85.5363 156.991 86.8147 157.21 88.083L161.911 115.321C162.131 116.59 162.831 117.697 163.883 118.439C164.935 119.182 166.212 119.47 167.482 119.251C170.102 118.799 171.864 116.3 171.412 113.681L166.71 86.443C166.491 85.1741 165.791 84.0666 164.739 83.3243C163.917 82.744 162.956 82.4414 161.97 82.4414ZM166.651 119.918C165.542 119.918 164.464 119.578 163.54 118.926C162.358 118.092 161.571 116.848 161.324 115.422L156.623 88.1843C156.376 86.7587 156.7 85.323 157.535 84.1404C158.368 82.9585 159.613 82.1721 161.039 81.9255C162.463 81.6795 163.9 82.0036 165.083 82.8376C166.265 83.6716 167.051 84.9161 167.297 86.3417L172 113.579C172.507 116.522 170.526 119.33 167.583 119.838C167.273 119.891 166.96 119.918 166.651 119.918Z" fill="#0A0B0B"/>
<path d="M166.727 86.5018L157.29 88.1312C155.313 88.4719 153.435 87.1464 153.094 85.1698L152.73 83.0662C152.389 81.0902 153.715 79.2112 155.691 78.8699L165.129 77.2405C167.105 76.8998 168.983 78.2253 169.325 80.2013L169.688 82.3055C170.029 84.2815 168.704 86.1605 166.727 86.5018Z" fill="#FEF7EE"/>
<path d="M166.728 86.5013H166.734H166.728ZM165.749 77.4849C165.561 77.4849 165.371 77.5009 165.18 77.5337L155.743 79.163C153.932 79.4758 152.712 81.204 153.025 83.0151L153.388 85.1186C153.701 86.9297 155.428 88.1479 157.24 87.8364L166.677 86.2076C168.488 85.8949 169.708 84.1666 169.395 82.3556L169.032 80.2515C168.752 78.6316 167.34 77.4849 165.749 77.4849ZM156.671 88.481C154.795 88.481 153.131 87.1298 152.8 85.2199L152.437 83.1164C152.069 80.9812 153.507 78.9444 155.641 78.5757L165.079 76.9469C167.214 76.5781 169.25 78.0157 169.62 80.1508L169.982 82.2543C170.351 84.3894 168.913 86.4263 166.779 86.7944L157.342 88.4238C157.116 88.4625 156.892 88.481 156.671 88.481Z" fill="#0A0B0B"/>
<path d="M141.216 73.9102L138.466 74.3844C137.123 74.6167 135.846 73.7154 135.615 72.372L135.526 71.8656C135.295 70.5228 136.195 69.2456 137.539 69.0139L140.288 68.5391L141.216 73.9102Z" fill="#F5E9D7"/>
<path d="M140.048 68.8839L137.592 69.3081C136.414 69.5118 135.619 70.6366 135.823 71.8161L135.91 72.3219C136.009 72.8932 136.324 73.3918 136.798 73.726C137.271 74.0608 137.848 74.1907 138.418 74.0918L140.874 73.6676L140.048 68.8839ZM138.043 74.7197C137.478 74.7197 136.926 74.5458 136.454 74.2128C135.85 73.7868 135.449 73.1512 135.323 72.4232L135.236 71.9174C134.977 70.4143 135.988 68.9804 137.491 68.7207L140.241 68.2464C140.317 68.2327 140.398 68.2512 140.463 68.2965C140.527 68.3418 140.571 68.4109 140.585 68.4889L141.512 73.8601C141.526 73.9375 141.507 74.018 141.461 74.0823C141.416 74.1466 141.347 74.1907 141.269 74.2044L138.52 74.6786C138.36 74.706 138.201 74.7197 138.043 74.7197Z" fill="#0A0B0B"/>
<path d="M169.424 80.7802L155.004 83.2697C147.958 84.4856 141.26 79.7603 140.044 72.7151L139.585 70.0587C138.369 63.0135 143.094 56.3157 150.14 55.0998L164.561 52.6102L169.424 80.7802Z" fill="#FC6647"/>
<path d="M164.32 52.9542L150.193 55.3925C143.32 56.5792 138.695 63.1353 139.881 70.0077L140.339 72.6641C141.526 79.5359 148.08 84.1618 154.955 82.9757L169.082 80.5368L164.32 52.9542ZM152.797 83.7573C146.474 83.7573 140.864 79.2029 139.752 72.7654L139.294 70.109C138.052 62.9131 142.896 56.0479 150.091 54.8057L164.512 52.3162C164.672 52.2894 164.829 52.3966 164.857 52.5592L169.72 80.7292C169.733 80.8072 169.715 80.8871 169.669 80.9514C169.624 81.0163 169.555 81.0598 169.477 81.0735L155.056 83.5631C154.297 83.6942 153.542 83.7573 152.797 83.7573Z" fill="#0A0B0B"/>
<path d="M164.563 52.61L169.426 80.78C180.591 78.8528 192.095 80.5065 202.381 85.5179L225.149 96.6099L211.753 19.0141L194.023 37.097C186.012 45.267 175.728 50.6828 164.563 52.61Z" fill="#F5E9D7"/>
<path d="M164.563 52.6099L164.269 52.6605L169.132 80.8305C169.145 80.9079 169.19 80.9782 169.254 81.0235C169.318 81.0688 169.399 81.0866 169.476 81.0735C172.489 80.5534 175.527 80.2955 178.559 80.2955C186.699 80.2955 194.796 82.1542 202.25 85.7858L225.017 96.8772C225.118 96.9267 225.237 96.9153 225.327 96.848C225.417 96.7807 225.461 96.6693 225.442 96.5591L212.045 18.9633C212.026 18.8525 211.948 18.7631 211.84 18.7298C211.734 18.6958 211.618 18.725 211.54 18.8054L193.809 36.8884C185.841 45.0142 175.614 50.3997 164.512 52.3162C164.349 52.3442 164.241 52.4985 164.269 52.6605L164.563 52.6099L164.613 52.9036C175.839 50.965 186.18 45.5194 194.235 37.3054L211.557 19.6377L224.755 96.0873L202.511 85.2502C194.976 81.5793 186.79 79.6998 178.559 79.6998C175.493 79.6998 172.422 79.9607 169.375 80.4861L169.426 80.7798L169.719 80.7292L164.856 52.5592L164.563 52.6099L164.613 52.9036L164.563 52.6099Z" fill="#0A0B0B"/>
<path d="M228.761 56.0326C232.478 77.5637 231.255 95.7497 226.03 96.6517C220.805 97.5536 213.556 80.8301 209.839 59.299C206.122 37.7674 207.344 19.5813 212.57 18.6794C217.794 17.7774 225.043 34.501 228.761 56.0326Z" fill="#FEF7EE"/>
<path d="M228.762 56.0329L228.469 56.0835C229.919 64.481 230.615 72.368 230.615 78.9068C230.616 84.0045 230.19 88.2848 229.378 91.3326C228.973 92.8559 228.47 94.07 227.891 94.9178C227.31 95.7685 226.672 96.2391 225.981 96.3583C225.863 96.3785 225.744 96.3886 225.623 96.3886C225.055 96.3892 224.437 96.1634 223.775 95.697C222.618 94.8838 221.362 93.3408 220.105 91.1992C216.324 84.7706 212.504 72.9869 210.134 59.2481C208.685 50.8506 207.988 42.9624 207.988 36.4236C207.988 31.3259 208.412 27.0462 209.224 23.9984C209.63 22.4751 210.133 21.261 210.711 20.4132C211.293 19.5631 211.931 19.0925 212.622 18.9734C212.74 18.9531 212.859 18.943 212.98 18.943C213.548 18.9424 214.166 19.1682 214.827 19.6346C215.984 20.4478 217.24 21.9908 218.498 24.1324C222.278 30.561 226.099 42.3447 228.469 56.0835L228.762 56.0329L229.056 55.9823C227.241 45.4753 224.59 36.1115 221.733 29.357C220.304 25.9792 218.825 23.2537 217.361 21.3551C216.628 20.4061 215.899 19.662 215.171 19.1479C214.444 18.635 213.709 18.3478 212.98 18.3472C212.826 18.3472 212.672 18.3603 212.521 18.3865C211.62 18.542 210.852 19.1485 210.219 20.0778C209.269 21.4766 208.573 23.6344 208.101 26.4093C207.631 29.1837 207.393 32.5752 207.393 36.4236C207.393 43.0041 208.093 50.9215 209.547 59.3499C211.361 69.8563 214.014 79.2201 216.87 85.9746C218.299 89.3524 219.777 92.0779 221.242 93.9765C221.974 94.9255 222.704 95.6696 223.432 96.1837C224.159 96.6972 224.894 96.9844 225.623 96.9844C225.777 96.9844 225.931 96.9713 226.082 96.9451C226.983 96.7896 227.751 96.1831 228.383 95.2538C229.334 93.855 230.029 91.6972 230.501 88.9217C230.972 86.1467 231.211 82.7552 231.211 78.9068C231.211 72.3263 230.511 64.4095 229.056 55.9823L228.762 56.0329Z" fill="#0A0B0B"/>
<path d="M226.901 55.6086C229.889 72.9129 228.906 87.5287 224.707 88.2537C220.508 88.9787 214.682 75.5383 211.694 58.2334C208.707 40.9291 209.69 26.3133 213.888 25.5888C218.088 24.8632 223.914 38.3036 226.901 55.6086Z" fill="#F5E9D7"/>
<path d="M226.901 55.6081L226.608 55.6587C227.773 62.4049 228.332 68.7411 228.332 73.9925C228.332 78.0858 227.991 81.522 227.34 83.9633C227.016 85.184 226.613 86.1539 226.153 86.827C225.691 87.5026 225.191 87.8678 224.657 87.9595C224.565 87.9756 224.473 87.9834 224.378 87.9834C223.938 87.984 223.452 87.8082 222.927 87.4383C222.009 86.7931 221.002 85.5587 219.994 83.8412C216.962 78.6857 213.892 69.2189 211.988 58.1823C210.823 51.4362 210.264 45.0999 210.264 39.8485C210.264 35.7552 210.605 32.319 211.256 29.8777C211.58 28.6576 211.983 27.6871 212.443 27.0145C212.905 26.3384 213.405 25.9738 213.939 25.8815C214.031 25.866 214.123 25.8582 214.218 25.8582C214.658 25.8576 215.144 26.0328 215.669 26.4033C216.587 27.0485 217.594 28.2829 218.602 29.9998C221.634 35.1553 224.704 44.6227 226.608 55.6587L226.901 55.6081L227.195 55.5575C225.736 47.1093 223.604 39.5804 221.306 34.1467C220.156 31.4284 218.967 29.2349 217.785 27.7026C217.194 26.9365 216.604 26.3348 216.012 25.9166C215.421 25.499 214.819 25.2625 214.218 25.2625C214.091 25.2625 213.964 25.2732 213.838 25.2947C213.094 25.4234 212.464 25.9238 211.951 26.6786C211.178 27.8152 210.619 29.5554 210.239 31.7906C209.86 34.0252 209.669 36.7531 209.668 39.8485C209.669 45.1416 210.231 51.507 211.401 58.2841C212.86 66.7317 214.992 74.2606 217.29 79.6949C218.44 82.4126 219.629 84.6061 220.811 86.139C221.402 86.9051 221.992 87.5068 222.584 87.925C223.175 88.342 223.777 88.5785 224.378 88.5791C224.506 88.5791 224.632 88.5684 224.758 88.5469C225.502 88.4183 226.132 87.9178 226.645 87.1624C227.418 86.0258 227.977 84.2856 228.357 82.051C228.736 79.8164 228.928 77.088 228.928 73.9925C228.928 68.6994 228.365 62.334 227.195 55.5575L226.901 55.6081Z" fill="#0A0B0B"/>
<path d="M167.546 52.008L172.266 80.3687L167.546 52.008Z" fill="#F5E9D7"/>
<path d="M172.265 80.6665C172.122 80.6665 171.996 80.5634 171.972 80.4175L167.251 52.0569C167.224 51.8942 167.334 51.7411 167.496 51.7143C167.656 51.6857 167.812 51.7965 167.839 51.9592L172.56 80.3198C172.586 80.4824 172.477 80.6355 172.314 80.6623L172.265 80.6665Z" fill="#0A0B0B"/>
<path d="M177.984 97.2391L178.02 97.3541C178.594 99.1615 177.585 101.11 175.778 101.683L165.493 104.949C163.687 105.523 161.738 104.514 161.165 102.707L161.128 102.592C160.554 100.785 161.563 98.8369 163.37 98.2632L173.654 94.9967C175.462 94.423 177.409 95.4322 177.984 97.2391Z" fill="#ECC07F"/>
<path d="M174.696 95.1321C174.381 95.1321 174.061 95.1804 173.745 95.2805L163.46 98.5463C161.805 99.0723 160.887 100.846 161.412 102.501L161.448 102.616C161.702 103.415 162.254 104.068 163.003 104.456C163.753 104.844 164.606 104.918 165.403 104.665L175.688 101.399C177.343 100.873 178.262 99.0991 177.736 97.4442L177.699 97.3286C177.275 95.9894 176.031 95.1321 174.696 95.1321ZM164.453 105.409C163.861 105.409 163.272 105.267 162.729 104.986C161.839 104.524 161.182 103.746 160.881 102.797L160.844 102.682C160.219 100.714 161.312 98.6041 163.28 97.9786L173.564 94.7127C175.534 94.0872 177.642 95.1804 178.268 97.1487L178.304 97.2637C178.929 99.232 177.836 101.341 175.868 101.967L165.583 105.233C165.213 105.351 164.833 105.409 164.453 105.409Z" fill="#0A0B0B"/>
<path d="M175.951 90.2932L175.987 90.4088C176.562 92.2156 175.552 94.1637 173.746 94.7374L163.461 98.0038C161.654 98.5781 159.706 97.5689 159.132 95.762L159.096 95.6465C158.522 93.8396 159.531 91.8915 161.338 91.3178L171.622 88.0514C173.429 87.4777 175.377 88.4863 175.951 90.2932Z" fill="#ECC07F"/>
<path d="M172.665 88.1874C172.35 88.1874 172.03 88.2351 171.715 88.3352L161.43 91.6016C160.632 91.8548 159.979 92.4076 159.591 93.157C159.202 93.9059 159.129 94.7584 159.382 95.5561L159.419 95.6716C159.672 96.4699 160.224 97.1234 160.974 97.5113C161.724 97.8997 162.577 97.9736 163.374 97.7204L173.657 94.454C174.456 94.2002 175.109 93.6479 175.497 92.8985C175.885 92.1496 175.959 91.2971 175.706 90.4989L175.669 90.3839C175.244 89.0447 174.001 88.1874 172.665 88.1874ZM162.424 98.4639C161.831 98.4645 161.243 98.3215 160.7 98.0403C159.809 97.5792 159.152 96.8018 158.851 95.8522L158.814 95.7366C158.512 94.787 158.6 93.7736 159.062 92.883C159.524 91.9918 160.3 91.3353 161.25 91.0338L171.534 87.7674C173.502 87.1419 175.612 88.2357 176.237 90.2034L176.274 90.3184C176.576 91.2686 176.488 92.2819 176.027 93.1725C175.565 94.0638 174.788 94.7203 173.838 95.0217L163.554 98.2881C163.183 98.4061 162.803 98.4639 162.424 98.4639Z" fill="#0A0B0B"/>
<path d="M178.02 104.362L178.03 104.393C178.598 106.178 177.601 108.101 175.817 108.668L168.801 110.896C167.016 111.463 165.092 110.466 164.526 108.682L164.517 108.651C163.95 106.866 164.946 104.943 166.73 104.376L173.745 102.148C175.53 101.582 177.454 102.578 178.02 104.362Z" fill="#ECC07F"/>
<path d="M174.77 102.286C174.456 102.286 174.141 102.335 173.834 102.432L166.82 104.66C165.187 105.178 164.281 106.928 164.799 108.561C165.327 110.224 167.078 111.13 168.71 110.612L175.725 108.384C176.512 108.134 177.157 107.59 177.54 106.85C177.922 106.111 177.995 105.27 177.745 104.483L177.735 104.452C177.485 103.665 176.941 103.021 176.201 102.638C175.75 102.404 175.262 102.286 174.77 102.286ZM167.772 111.354C166.202 111.354 164.74 110.347 164.241 108.772C163.613 106.795 164.693 104.71 166.639 104.092L173.653 101.865C174.593 101.566 175.595 101.653 176.475 102.109C177.356 102.565 178.005 103.333 178.303 104.272L178.313 104.302C178.612 105.242 178.525 106.244 178.069 107.124C177.613 108.005 176.845 108.654 175.906 108.952L168.89 111.18C168.519 111.298 168.142 111.354 167.772 111.354Z" fill="#0A0B0B"/>
<path d="M179.934 110.948L179.97 111.064C180.544 112.871 179.535 114.819 177.728 115.392L174.255 116.496C172.448 117.069 170.5 116.06 169.926 114.253L169.89 114.138C169.315 112.331 170.325 110.384 172.132 109.809L175.605 108.707C177.412 108.132 179.36 109.141 179.934 110.948Z" fill="#ECC07F"/>
<path d="M176.65 108.842C176.334 108.842 176.014 108.89 175.699 108.99L172.226 110.093C171.428 110.346 170.774 110.899 170.386 111.648C169.998 112.398 169.924 113.25 170.177 114.048L170.214 114.163C170.468 114.962 171.02 115.615 171.769 116.003C172.52 116.391 173.372 116.465 174.169 116.211L177.643 115.109C178.441 114.855 179.094 114.303 179.482 113.553C179.87 112.804 179.944 111.952 179.69 111.154L179.654 111.039C179.229 109.699 177.986 108.842 176.65 108.842ZM173.219 116.956C172.627 116.956 172.039 116.813 171.495 116.532C170.605 116.07 169.948 115.293 169.647 114.344L169.61 114.228C169.308 113.279 169.396 112.265 169.857 111.374C170.319 110.483 171.095 109.827 172.046 109.526L175.518 108.422C177.487 107.797 179.597 108.89 180.222 110.858L180.223 110.859L180.258 110.974C180.56 111.923 180.472 112.937 180.011 113.827C179.55 114.718 178.773 115.374 177.822 115.677L174.349 116.779C173.979 116.897 173.599 116.956 173.219 116.956Z" fill="#0A0B0B"/>
<path d="M153.072 98.2466C153.072 98.2466 154.339 94.637 154.894 93.125C155.483 91.5225 156.08 89.8145 155.728 88.1441C155.377 86.4736 153.663 84.9718 152.04 85.5026C150.443 86.0251 147.419 92.6431 146.466 94.2003" fill="#F5E9D7"/>
<path d="M153.356 98.3447L152.795 98.1475C152.795 98.1475 154.063 94.5356 154.618 93.0224C155.138 91.6058 155.786 89.8424 155.44 88.2053C155.255 87.3236 154.634 86.4645 153.859 86.0172C153.458 85.7854 152.835 85.5584 152.136 85.7854C151.047 86.1423 148.907 90.2391 147.759 92.4398C147.314 93.2917 146.962 93.9649 146.723 94.3563C146.636 94.4969 146.451 94.5386 146.314 94.4546C146.173 94.3688 146.129 94.1853 146.215 94.0447C146.444 93.6712 146.808 92.9724 147.23 92.1645C149.022 88.7319 150.732 85.618 151.951 85.2195C152.656 84.9871 153.441 85.0884 154.156 85.5012C155.085 86.0374 155.801 87.0263 156.023 88.0826C156.404 89.8865 155.724 91.7392 155.178 93.2279C154.622 94.7381 153.356 98.3447 153.356 98.3447Z" fill="#0A0B0B"/>
<path d="M150.257 108.181H150.253C150.089 108.179 149.957 108.044 149.959 107.879C149.996 104.603 152.688 98.3897 152.802 98.127C152.869 97.9757 153.045 97.9084 153.195 97.9727C153.346 98.0383 153.414 98.214 153.348 98.3647C153.321 98.4285 150.59 104.73 150.555 107.886C150.553 108.05 150.42 108.181 150.257 108.181Z" fill="#0A0B0B"/>
<path d="M129.679 30.353C129.818 30.163 129.94 29.9634 130.026 29.7412C131.633 27.9236 132.701 25.602 132.943 22.9998C133.548 16.4676 128.744 10.68 122.211 10.0742C121.66 10.0229 121.118 10.0241 120.58 10.048C114.819 5.07298 110.802 -0.308311 100.702 0.991585C96.8091 1.4926 93.1912 3.49904 90.9763 6.74044C90.6683 7.19141 90.3978 7.67572 90.1512 8.17495C89.9528 8.57647 84.8021 9.15375 84.117 9.34379C79.3034 10.6759 73.1465 12.6585 70.7451 17.4256C69.6829 19.5339 69.3475 21.9102 69.2593 24.2854C65.6295 27.1676 64.1515 32.2665 65.6164 36.8817L69.4005 48.803C70.1928 48.604 71.0173 48.4866 71.8698 48.4866H76.6953C76.9908 48.99 77.2863 49.4958 77.5764 50.0093C79.0747 52.6568 80.0445 55.471 79.9289 58.5498C86.1711 49.8217 116.046 52.098 122.677 52.098C129.307 52.098 134.682 46.7227 134.682 40.0921C134.682 36.0774 132.705 32.5328 129.679 30.353Z" fill="#0A0B0B"/>
<path d="M71.8689 48.1882H76.6943C76.7998 48.1882 76.8975 48.2437 76.9511 48.3354C77.2472 48.84 77.5433 49.3476 77.8352 49.8623C79.3752 52.5854 80.1639 55.159 80.2306 57.7016C86.5627 50.7106 108.334 51.3832 118.965 51.7114C120.554 51.7609 121.808 51.7996 122.676 51.7996C129.132 51.7996 134.384 46.547 134.384 40.0916C134.384 36.3456 132.559 32.7956 129.504 30.5944C129.44 30.5479 129.396 30.4776 129.384 30.399C129.371 30.3209 129.391 30.2405 129.438 30.1768C129.583 29.9784 129.681 29.8062 129.746 29.6341L129.801 29.5435C131.434 27.6973 132.418 25.4252 132.645 22.9714C132.931 19.8914 131.999 16.8847 130.023 14.5041C128.048 12.1242 125.263 10.6563 122.183 10.3703C121.705 10.3263 121.2 10.3185 120.592 10.3447C120.514 10.3519 120.443 10.3227 120.384 10.2726C119.572 9.57205 118.79 8.85835 118.034 8.1679C113.339 3.88575 109.286 0.185642 100.739 1.28656C96.7838 1.79592 93.3148 3.84465 91.2214 6.90792C90.9473 7.30825 90.6846 7.76579 90.4177 8.30613C90.2634 8.61889 89.626 8.80297 85.9419 9.34628C85.1502 9.46304 84.402 9.57325 84.1953 9.63045C78.6489 11.1657 73.2123 13.1882 71.0098 17.5591C70.1228 19.3201 69.6611 21.4606 69.5562 24.2957C69.5527 24.3832 69.5121 24.4643 69.4436 24.5179C65.8895 27.3405 64.4651 32.272 65.899 36.7912L69.5997 48.4486C70.3682 48.2758 71.1308 48.1882 71.8689 48.1882ZM79.928 58.8472L79.8321 58.8311C79.7076 58.7888 79.6254 58.6696 79.6301 58.538C79.732 55.8286 78.9748 53.0864 77.3157 50.1554C77.0548 49.6937 76.7897 49.2373 76.5234 48.784H71.8689C71.0914 48.784 70.286 48.8871 69.4722 49.0914C69.3191 49.1295 69.1636 49.0425 69.116 48.8924L65.3313 36.9711C63.8372 32.2636 65.2979 27.1254 68.9659 24.1378C69.0409 22.3012 69.2899 19.6495 70.4784 17.291C72.7845 12.7134 78.3576 10.6277 84.0362 9.05615C84.2787 8.98883 84.9745 8.88635 85.855 8.75648C87.143 8.56703 89.5146 8.21674 89.9066 7.99572C90.1782 7.45003 90.4475 6.98418 90.7293 6.57133C92.9186 3.36866 96.5389 1.22699 100.664 0.695599C109.478 -0.438087 113.831 3.52771 118.435 7.72825C119.161 8.39011 119.91 9.07402 120.685 9.74482C121.267 9.72397 121.765 9.73351 122.238 9.77699C125.476 10.0778 128.404 11.6214 130.482 14.1235C132.559 16.6262 133.538 19.7883 133.239 23.0267C133 25.5896 131.979 27.9642 130.283 29.8986C130.23 30.026 130.165 30.1518 130.085 30.2828C133.155 32.6056 134.979 36.2509 134.979 40.0916C134.979 46.8758 129.46 52.3953 122.676 52.3953C121.798 52.3953 120.54 52.356 118.946 52.3072C108.937 51.9962 85.4981 51.2724 80.1699 58.7227C80.1133 58.8025 80.0221 58.8472 79.928 58.8472Z" fill="#0A0B0B"/>
<path d="M106.098 31.5376C104.857 30.8757 103.613 30.131 102.221 29.9279C98.7842 29.4257 95.6364 32.3114 92.1644 32.2167C89.6677 32.1488 87.3127 30.3473 86.5931 27.9554C88.6377 38.4886 86.1683 49.8213 79.9262 58.5494C80.0418 55.4706 79.0719 52.6564 77.5736 50.0089C77.2835 49.4954 76.988 48.9896 76.6926 48.4862H71.8671C71.0146 48.4862 70.1901 48.6036 69.3978 48.8026C64.9625 49.916 61.6484 53.9372 61.6484 58.7049V59.7022C61.6484 65.3223 66.2463 69.9214 71.8671 69.9214H74.5938L71.8635 104.036C71.0652 114.011 78.5042 122.744 88.4786 123.542L90.2408 123.683C100.215 124.481 108.948 117.042 109.746 107.068L110.775 94.2179C119.79 94.0684 127.055 86.7253 127.055 77.6743V37.7451C127.055 36.0079 126.773 34.3405 126.273 32.7689C125.468 33.2568 124.617 33.6619 123.735 33.9652C117.96 35.9478 111.487 34.4102 106.098 31.5376Z" fill="#ECC07F"/>
<path d="M71.8681 48.7843C71.0906 48.7843 70.2852 48.8874 69.4714 49.0917C65.0415 50.2033 61.9473 54.1566 61.9473 58.7051V59.7023C61.9473 65.173 66.3974 69.6237 71.8681 69.6237H74.5948C74.6782 69.6237 74.7574 69.6583 74.8134 69.7191C74.87 69.7804 74.8986 69.862 74.8914 69.9454L72.1612 104.06C71.7817 108.805 73.2722 113.413 76.3587 117.037C79.4458 120.661 83.7584 122.865 88.5034 123.245L90.2656 123.386C95.0089 123.768 99.6187 122.275 103.243 119.189C106.866 116.102 109.071 111.789 109.451 107.044L110.479 94.1943C110.491 94.0418 110.618 93.9232 110.771 93.9202C119.587 93.7743 126.759 86.486 126.759 77.6745V37.7453C126.759 36.228 126.537 34.7059 126.1 33.2171C125.364 33.6371 124.603 33.9826 123.832 34.2471C116.803 36.6605 109.616 33.7503 105.959 31.8004L105.524 31.5663C104.459 30.9909 103.357 30.3951 102.179 30.2224C100.435 29.9692 98.7775 30.6215 97.0212 31.3125C95.4622 31.9261 93.8436 32.5582 92.1577 32.5147C90.2066 32.4617 88.3503 31.4138 87.2119 29.8482C88.6136 39.8548 86.0418 50.5125 80.1691 58.723C80.0934 58.8296 79.9558 58.8737 79.8313 58.8314C79.7068 58.7891 79.6246 58.6699 79.6293 58.5383C79.7312 55.8289 78.974 53.0867 77.3149 50.1557C77.054 49.694 76.7889 49.2376 76.5226 48.7843H71.8681ZM91.7174 124.04C91.2194 124.04 90.7196 124.02 90.2179 123.98L88.4558 123.839C83.5522 123.447 79.0956 121.168 75.9054 117.423C72.7158 113.678 71.1752 108.916 71.5678 104.013L74.2719 70.2195H71.8681C66.0692 70.2195 61.3516 65.5012 61.3516 59.7023V58.7051C61.3516 53.8832 64.6305 49.6922 69.3261 48.5138C70.1875 48.2976 71.0424 48.1885 71.8681 48.1885H76.6935C76.799 48.1885 76.8967 48.2439 76.9503 48.3357C77.2464 48.8403 77.5425 49.3479 77.8344 49.8626C79.3535 52.5487 80.1411 55.089 80.2263 57.5982C85.99 49.0845 88.2598 38.0992 86.301 28.0122C86.2712 27.8567 86.3683 27.7042 86.5226 27.666C86.6781 27.6279 86.8336 27.7185 86.8788 27.8692C87.5657 30.1515 89.7926 31.8547 92.1738 31.919C93.7602 31.9625 95.3002 31.3501 96.8026 30.7585C98.5553 30.0686 100.366 29.3561 102.265 29.6332C103.548 29.8202 104.697 30.4416 105.808 31.0427L106.239 31.2744C109.811 33.1796 116.822 36.0254 123.639 33.6836C124.485 33.3934 125.319 33.0003 126.119 32.5141C126.199 32.4671 126.294 32.4587 126.379 32.4897C126.464 32.5219 126.53 32.5916 126.558 32.6792C127.086 34.3395 127.354 36.0445 127.354 37.7453V77.6745C127.354 86.719 120.066 94.2145 111.051 94.5094L110.044 107.092C109.652 111.995 107.374 116.453 103.629 119.642C100.267 122.505 96.0847 124.04 91.7174 124.04Z" fill="#0A0B0B"/>
<path d="M77.0205 69.9464L73.8023 78.749L71.7852 69.9149L77.0205 69.9464Z" fill="#0A0B0B"/>
<path d="M72.161 70.2146L73.8701 77.7006L76.5968 70.2414L72.161 70.2146ZM73.804 79.0464H73.7855C73.6533 79.0375 73.5431 78.9439 73.5139 78.8152L71.4967 69.9805C71.4765 69.8917 71.4979 69.7988 71.5551 69.7279C71.6117 69.657 71.7201 69.6212 71.7886 69.6165L77.024 69.6481C77.1211 69.6486 77.2116 69.6963 77.267 69.7761C77.3224 69.856 77.3355 69.9572 77.3022 70.0484L74.084 78.851C74.0405 78.9689 73.9285 79.0464 73.804 79.0464Z" fill="#0A0B0B"/>
<path d="M70.6897 62.6748C70.5926 62.6748 70.4973 62.6271 70.4401 62.5396C70.3508 62.402 70.3895 62.2173 70.5271 62.1273L73.7423 60.0309L70.2269 56.1193C70.1166 55.9972 70.1268 55.8083 70.2495 55.6987C70.371 55.5891 70.5605 55.598 70.6701 55.7214L74.4179 59.8915C74.4762 59.9564 74.503 60.0434 74.4917 60.1292C74.4804 60.2156 74.4322 60.2924 74.3595 60.3401L70.853 62.6265C70.8023 62.6593 70.7457 62.6748 70.6897 62.6748Z" fill="#0A0B0B"/>
<path d="M110.695 64.2803H107.831C107.667 64.2803 107.533 64.1468 107.533 63.9824C107.533 63.818 107.667 63.6845 107.831 63.6845H110.695C111.639 63.6845 112.528 63.2699 113.134 62.5473C113.741 61.8246 113.995 60.8768 113.831 59.9475L112.063 49.895C112.034 49.7336 112.142 49.5793 112.304 49.5507C112.461 49.5203 112.621 49.6299 112.649 49.7926L114.418 59.845C114.612 60.9477 114.311 62.0725 113.591 62.9303C112.87 63.7882 111.815 64.2803 110.695 64.2803Z" fill="#0A0B0B"/>
<path d="M120.066 55.1733C120.271 56.3046 119.52 57.3883 118.389 57.5926C117.257 57.7981 116.174 57.0469 115.969 55.9156C115.765 54.7843 116.515 53.7013 117.647 53.4963C118.778 53.2914 119.862 54.042 120.066 55.1733Z" fill="#0A0B0B"/>
<path d="M92.1983 47.4693C93.2354 47.5878 94.3888 47.1136 95.529 46.7193C96.6699 46.2981 97.8244 45.9043 98.8407 45.5969C99.8588 45.2877 101.041 44.9737 102.223 44.6914C103.39 44.3852 104.619 44.1373 105.403 43.4677C106.164 42.8333 106.199 41.6674 104.77 40.6797C103.415 39.7074 100.457 39.0998 97.0863 40.1125C93.7239 41.1408 91.6424 43.2759 91.0926 44.8248C90.4951 46.4273 91.2016 47.368 92.1983 47.4693Z" fill="#0A0B0B"/>
<path d="M124.414 45.7686C123.641 45.9151 122.786 45.5732 121.94 45.2967C121.094 44.9983 120.236 44.7231 119.482 44.5134C118.726 44.3031 117.849 44.0957 116.971 43.9146C116.104 43.7139 115.192 43.5638 114.612 43.0407C114.05 42.5474 114.031 41.577 115.1 40.6864C116.115 39.813 118.321 39.1702 120.823 39.8589C123.319 40.5606 124.854 42.2448 125.253 43.5119C125.689 44.8208 125.156 45.6381 124.414 45.7686Z" fill="#0A0B0B"/>
<path d="M101.942 55.8954C101.848 57.15 100.754 58.0901 99.5002 57.9959C98.245 57.9018 97.3049 56.808 97.3991 55.5534C97.4944 54.2988 98.5876 53.3587 99.8416 53.4535C101.096 53.5476 102.037 54.6414 101.942 55.8954Z" fill="#0A0B0B"/>
<path d="M97.3223 58.113C97.3223 58.113 99.3561 56.6504 101.329 58.3936L97.3223 58.113Z" fill="#F5E9D7"/>
<path d="M101.326 58.6914C101.255 58.6914 101.185 58.667 101.129 58.6169C99.3652 57.0591 97.5685 58.3012 97.4928 58.3548C97.3588 58.4501 97.1723 58.4192 97.077 58.2857C96.9817 58.1517 97.0121 57.9664 97.1455 57.8711C97.1676 57.8544 99.3986 56.2924 101.523 58.1707C101.646 58.2792 101.658 58.4674 101.549 58.5907C101.49 58.6575 101.408 58.6914 101.326 58.6914Z" fill="#0A0B0B"/>
<path d="M116.396 57.9661C116.396 57.9661 118.238 57.141 119.937 58.0024L116.396 57.9661Z" fill="#F5E9D7"/>
<path d="M119.937 58.2998L119.802 58.2676C118.249 57.4795 116.534 58.2295 116.517 58.2372C116.367 58.3034 116.19 58.2373 116.124 58.0871C116.056 57.937 116.124 57.7613 116.274 57.6933C116.354 57.6576 118.264 56.8194 120.072 57.7362C120.219 57.8107 120.278 57.99 120.203 58.1366C120.15 58.2402 120.046 58.2998 119.937 58.2998Z" fill="#0A0B0B"/>
<path d="M96.8782 68.8679C97.667 68.343 98.7155 68.4723 99.4143 69.1121C100.687 70.2774 103.457 72.3452 107.425 72.7491C108.399 72.8486 108.903 73.9817 108.484 74.8675C107.565 76.8144 105.102 79.8163 99.9748 77.4119C93.7292 74.4833 94.8223 70.2351 96.8782 68.8679Z" fill="#FEF7EE"/>
<path d="M97.0424 69.1153C96.2948 69.6121 95.462 70.7226 95.5728 72.2173C95.7122 74.0891 97.3195 75.8381 100.1 77.1416C105.26 79.5615 107.493 76.2671 108.214 74.7396C108.387 74.3726 108.37 73.9252 108.17 73.5708C107.997 73.2652 107.722 73.0787 107.394 73.0453C103.354 72.6337 100.533 70.5415 99.2115 69.3315C98.5937 68.765 97.7019 68.6762 97.0418 69.1153H97.0424ZM103.475 78.5952C102.444 78.5952 101.241 78.3349 99.8478 77.6814C95.8218 75.7935 95.0688 73.4755 94.9788 72.2613C94.8716 70.8203 95.5525 69.3905 96.7118 68.619H96.7124C97.5994 68.0286 98.7939 68.1406 99.6142 68.8919C100.881 70.0529 103.585 72.0582 107.454 72.4526C107.972 72.5056 108.422 72.8064 108.688 73.2783C108.986 73.8055 109.01 74.4471 108.752 74.994C108.279 75.9954 106.733 78.5952 103.475 78.5952Z" fill="#0A0B0B"/>
<path d="M110.672 94.3126C110.672 94.3126 92.0525 95.5142 87.457 87.9722C87.457 87.9722 91.5956 100.409 109.837 104.734L110.672 94.3126Z" fill="#0A0B0B"/>
<path d="M88.7201 89.9434C90.7683 93.6048 96.4432 101.147 109.566 104.363L110.346 94.6295C107.947 94.748 94.466 95.1663 88.7201 89.9434ZM109.835 105.032L109.767 105.024C91.5743 100.711 87.2147 88.192 87.1724 88.0663C87.1247 87.9221 87.1926 87.7654 87.3303 87.7017C87.4655 87.6397 87.6311 87.6874 87.7098 87.8172C92.1587 95.1192 110.466 94.029 110.651 94.0153C110.737 94.0111 110.821 94.0421 110.882 94.104C110.943 94.1654 110.974 94.25 110.967 94.337L110.132 104.758C110.126 104.845 110.081 104.924 110.011 104.975C109.959 105.013 109.898 105.032 109.835 105.032Z" fill="#0A0B0B"/>
<path d="M5.95508 223.073L7.6117 180.174L52.648 181.621C52.6319 181.881 56.9349 149.755 56.9152 150.015L52.648 181.621L46.6525 181.436L46.0514 195.709C46.0514 195.709 86.8807 174.83 90.3753 170.62C90.3753 170.62 102.192 158.835 106.91 155.637C107.416 155.295 107.941 154.956 108.532 154.803C109.124 154.649 109.802 154.706 110.274 155.095C110.887 155.601 110.99 156.496 110.955 157.29C110.847 159.758 109.87 162.072 108.895 164.358C109.182 164.265 139.023 154.379 140.666 153.965C143.492 153.253 143.357 157.155 141.354 159.273C138.797 161.976 126.913 168.234 126.267 168.386C129.136 168.279 131.878 167.699 132.565 172.371C133.038 175.595 130.185 176.491 127.29 176.825C129.117 176.893 130.684 177.503 130.853 179.674C131.572 183.345 128.522 184.833 125.481 185.209C125.39 185.22 125.375 185.341 125.461 185.374C127.956 186.352 126.23 190.939 122.557 192.272L102.031 200.928C99.9244 201.878 44.966 243.685 44.966 243.685C38.5999 248.142 31.2098 249.136 24.5691 247.442C13.5461 244.631 5.99928 234.45 5.95508 223.073Z" fill="#ECC07F"/>
<path d="M6.25394 223.079C6.30094 234.505 13.8624 244.404 24.644 247.154C31.6606 248.944 38.8184 247.626 44.796 243.442C47.0312 241.741 99.7961 201.61 101.909 200.656L122.442 191.998C124.827 191.132 126.316 188.866 126.337 187.26C126.343 186.705 126.179 185.976 125.353 185.652C125.188 185.587 125.089 185.42 125.11 185.246C125.132 185.073 125.269 184.937 125.444 184.913C127.59 184.648 129.217 183.888 130.026 182.771C130.617 181.956 130.797 180.934 130.561 179.732C130.426 178.018 129.385 177.2 127.28 177.124C127.124 177.118 126.999 176.994 126.993 176.838C126.987 176.682 127.102 176.548 127.257 176.53C129.62 176.257 131.058 175.69 131.783 174.747C132.252 174.137 132.412 173.373 132.271 172.414C131.683 168.409 129.626 168.513 127.012 168.65C126.77 168.662 126.525 168.675 126.279 168.684C126.116 168.68 125.993 168.578 125.973 168.426C125.952 168.274 126.051 168.132 126.2 168.096C126.98 167.884 138.658 161.69 141.138 159.069C142.448 157.684 142.828 155.624 142.291 154.707C142.005 154.219 141.482 154.068 140.739 154.255C140.085 154.42 134.262 156.284 110.249 164.225C109.474 164.481 109.022 164.63 108.988 164.641C108.878 164.678 108.755 164.645 108.676 164.559C108.598 164.473 108.576 164.349 108.622 164.241C109.57 162.017 110.552 159.717 110.659 157.277C110.7 156.318 110.513 155.678 110.085 155.326C109.729 155.031 109.175 154.945 108.608 155.091C108.071 155.23 107.578 155.546 107.078 155.884C102.438 159.03 90.7046 170.714 90.5872 170.831C87.1123 175.019 47.8575 195.12 46.1876 195.975C46.0941 196.022 45.9815 196.017 45.8915 195.96C45.8022 195.903 45.7503 195.802 45.7545 195.696L46.3431 181.717L7.89918 180.482L6.25394 223.079ZM30.7807 248.53C28.6956 248.53 26.5909 248.265 24.4963 247.731C13.4504 244.913 5.70336 234.775 5.6582 223.074V223.062L7.31482 180.163C7.32138 180 7.4447 179.878 7.62205 179.877L52.3898 181.315L56.4521 151.2C56.4968 150.871 56.532 150.615 56.5624 150.413L56.6213 149.975L56.6404 149.978C56.7101 149.693 56.781 149.702 56.9478 149.717C57.108 149.735 57.226 149.878 57.2135 150.038L55.4829 162.858C55.4036 163.446 55.3238 164.036 55.2452 164.624L53.1512 180.168C53.0928 180.596 53.0487 180.921 53.0112 181.167L52.9439 181.661C52.9355 181.729 52.9045 181.787 52.8599 181.832C52.8027 181.938 52.7342 181.931 52.6198 181.919L52.6096 181.918L46.9382 181.743L46.3717 195.211C50.8624 192.904 86.9282 174.308 90.1476 170.43C90.2846 170.292 102.058 158.568 106.744 155.391C107.289 155.022 107.83 154.678 108.458 154.514C109.211 154.32 109.959 154.451 110.465 154.866C111.047 155.346 111.305 156.144 111.254 157.303C111.151 159.625 110.31 161.783 109.428 163.868C109.605 163.81 109.817 163.74 110.062 163.659C134.092 155.712 139.929 153.844 140.594 153.677C141.943 153.334 142.559 153.987 142.805 154.407C143.543 155.668 142.979 157.99 141.571 159.478C139.492 161.676 131.179 166.3 127.765 168.019C130.065 167.942 132.261 168.248 132.861 172.329C133.024 173.439 132.82 174.375 132.255 175.11C131.532 176.051 130.301 176.548 129.088 176.829C130.36 177.275 131.038 178.209 131.15 179.651C131.414 180.988 131.2 182.167 130.509 183.121C129.486 184.531 127.669 185.148 126.134 185.414C126.663 185.827 126.943 186.466 126.932 187.268C126.909 189.111 125.304 191.592 122.66 192.553L102.147 201.203C100.512 201.941 64.1467 229.47 45.1469 243.922C40.8016 246.965 35.8534 248.53 30.7807 248.53Z" fill="#0A0B0B"/>
<path d="M46.135 188.343L28.4297 205.032L46.0522 196.022L46.135 188.343Z" fill="#0A0B0B"/>
<path d="M108.638 164.737L97.5352 169.914C97.5352 169.914 107.945 161.65 110.038 160.989L108.638 164.737Z" fill="#0A0B0B"/>
<path d="M120.08 170.294C120.08 170.294 126.831 168.057 128.002 168.006L120.08 170.294Z" fill="#F5E9D7"/>
<path d="M120.078 170.593C119.953 170.593 119.837 170.514 119.795 170.389C119.744 170.233 119.829 170.064 119.984 170.013C120.261 169.921 126.788 167.762 127.987 167.709C128.146 167.701 128.29 167.83 128.298 167.994C128.305 168.158 128.177 168.297 128.013 168.305C127.086 168.344 122.039 169.959 120.172 170.578L120.078 170.593Z" fill="#0A0B0B"/>
<path d="M127.896 176.733L121.626 178.69L127.896 176.733Z" fill="#F5E9D7"/>
<path d="M121.625 178.988C121.499 178.988 121.381 178.907 121.341 178.78C121.292 178.622 121.379 178.456 121.536 178.406L127.806 176.449C127.966 176.4 128.13 176.488 128.179 176.645C128.228 176.801 128.14 176.969 127.984 177.018L121.714 178.975L121.625 178.988Z" fill="#0A0B0B"/>
<path d="M125.055 185.256L121.654 186.234L125.055 185.256Z" fill="#F5E9D7"/>
<path d="M121.652 186.532C121.522 186.532 121.404 186.448 121.366 186.317C121.321 186.159 121.412 185.994 121.57 185.948L124.97 184.969C125.131 184.922 125.293 185.015 125.339 185.173C125.384 185.331 125.293 185.496 125.135 185.542L121.735 186.521L121.652 186.532Z" fill="#0A0B0B"/>
</svg>
