<svg width="23" height="23" viewBox="0 0 23 23" fill="none" xmlns="http://www.w3.org/2000/svg">
<path d="M11.25 22.1702C5.1747 22.1702 0.25 17.2455 0.25 11.1702C0.25 5.09487 5.1747 0.170166 11.25 0.170166C17.3253 0.170166 22.25 5.09487 22.25 11.1702C22.25 17.2455 17.3253 22.1702 11.25 22.1702ZM11.25 19.9702C13.5839 19.9702 15.8222 19.043 17.4725 17.3927C19.1229 15.7424 20.05 13.5041 20.05 11.1702C20.05 8.83626 19.1229 6.59795 17.4725 4.94763C15.8222 3.29731 13.5839 2.37017 11.25 2.37017C8.91609 2.37017 6.67778 3.29731 5.02746 4.94763C3.37714 6.59795 2.45 8.83626 2.45 11.1702C2.45 13.5041 3.37714 15.7424 5.02746 17.3927C6.67778 19.043 8.91609 19.9702 11.25 19.9702ZM12.35 11.1702H16.75V13.3702H10.15V5.67017H12.35V11.1702Z" fill="#12D589"/>
</svg>
