<svg width="24" height="24" viewBox="0 0 24 24" fill="none" xmlns="http://www.w3.org/2000/svg">
<path d="M12.3805 23.2077C6.08128 23.2077 0.975098 18.1015 0.975098 11.8023C0.975098 5.50315 6.08128 0.396973 12.3805 0.396973C18.6796 0.396973 23.7858 5.50315 23.7858 11.8023C23.7858 18.1015 18.6796 23.2077 12.3805 23.2077ZM12.3805 20.9266C14.8004 20.9266 17.1212 19.9653 18.8323 18.2542C20.5434 16.543 21.5047 14.2222 21.5047 11.8023C21.5047 9.38242 20.5434 7.06162 18.8323 5.35049C17.1212 3.63935 14.8004 2.67804 12.3805 2.67804C9.96055 2.67804 7.63975 3.63935 5.92861 5.35049C4.21748 7.06162 3.25617 9.38242 3.25617 11.8023C3.25617 14.2222 4.21748 16.543 5.92861 18.2542C7.63975 19.9653 9.96055 20.9266 12.3805 20.9266ZM8.95885 7.24019H15.8021L18.6534 11.2321L12.3805 17.505L6.10751 11.2321L8.95885 7.24019ZM10.1336 9.52126L9.08431 10.9926L12.3805 14.2887L15.6766 10.9926L14.6273 9.52126H10.1336Z" fill="#FFB26A"/>
</svg>
