<svg width="24" height="24" viewBox="0 0 24 24" fill="none" xmlns="http://www.w3.org/2000/svg">
<path d="M11.8038 23.1481C5.50462 23.1481 0.398438 18.0419 0.398438 11.7428C0.398438 5.44358 5.50462 0.337402 11.8038 0.337402C18.103 0.337402 23.2092 5.44358 23.2092 11.7428C23.2092 18.0419 18.103 23.1481 11.8038 23.1481ZM11.8038 20.8671C14.2237 20.8671 16.5445 19.9057 18.2556 18.1946C19.9668 16.4835 20.9281 14.1627 20.9281 11.7428C20.9281 9.32285 19.9668 7.00205 18.2556 5.29092C16.5445 3.57978 14.2237 2.61847 11.8038 2.61847C9.38389 2.61847 7.06309 3.57978 5.35195 5.29092C3.64082 7.00205 2.67951 9.32285 2.67951 11.7428C2.67951 14.1627 3.64082 16.4835 5.35195 18.1946C7.06309 19.9057 9.38389 20.8671 11.8038 20.8671ZM9.57975 10.6022H15.2254V12.8833H9.57975C9.67856 13.3684 9.90196 13.8194 10.228 14.192C10.554 14.5645 10.9714 14.8458 11.4391 15.0081C11.9068 15.1703 12.4087 15.208 12.8954 15.1174C13.3821 15.0269 13.8369 14.8111 14.2149 14.4915L16.1538 15.7837C15.4875 16.509 14.6267 17.0273 13.6739 17.2767C12.7212 17.5261 11.7168 17.4962 10.7806 17.1904C9.84441 16.8846 9.01596 16.316 8.39411 15.5522C7.77227 14.7885 7.38329 13.862 7.27359 12.8833H6.10112V10.6022H7.27245C7.38177 9.62301 7.77065 8.69595 8.39264 7.93178C9.01463 7.16761 9.84344 6.59863 10.7801 6.29279C11.7167 5.98695 12.7216 5.95718 13.6747 6.20705C14.6278 6.45691 15.4888 6.97583 16.1549 7.70184L14.2149 8.99407C13.8369 8.6744 13.3821 8.45866 12.8954 8.36808C12.4087 8.2775 11.9068 8.3152 11.4391 8.47747C10.9714 8.63974 10.554 8.921 10.228 9.29355C9.90196 9.66611 9.67856 10.1171 9.57975 10.6022Z" fill="#BEBEBE"/>
</svg>
