<svg width="22" height="17" viewBox="0 0 22 17" fill="none" xmlns="http://www.w3.org/2000/svg">
<path d="M15.9998 0.762695C17.5911 0.762695 19.1172 1.39484 20.2424 2.52005C21.3676 3.64527 21.9998 5.1714 21.9998 6.7627V10.7627C21.9998 12.354 21.3676 13.8801 20.2424 15.0053C19.1172 16.1306 17.5911 16.7627 15.9998 16.7627H5.99975C4.40846 16.7627 2.88233 16.1306 1.75711 15.0053C0.631897 13.8801 -0.000244141 12.354 -0.000244141 10.7627V6.7627C-0.000244141 5.1714 0.631897 3.64527 1.75711 2.52005C2.88233 1.39484 4.40846 0.762695 5.99975 0.762695H15.9998ZM15.9998 2.7627H5.99975C4.97351 2.76269 3.98653 3.15713 3.24294 3.86442C2.49936 4.57171 2.05607 5.53774 2.00476 6.5627L1.99976 6.7627V10.7627C1.99975 11.7889 2.39419 12.7759 3.10148 13.5195C3.80877 14.2631 4.7748 14.7064 5.79975 14.7577L5.99975 14.7627H15.9998C17.026 14.7627 18.013 14.3683 18.7566 13.661C19.5001 12.9537 19.9434 11.9877 19.9948 10.9627L19.9998 10.7627V6.7627C19.9998 5.73645 19.6053 4.74947 18.898 4.00588C18.1907 3.2623 17.2247 2.81901 16.1998 2.7677L15.9998 2.7627ZM8.99975 5.7627V7.7627H10.9998V9.7627H8.99875L8.99975 11.7627H6.99975L6.99875 9.7627H4.99975V7.7627H6.99975V5.7627H8.99975ZM16.9998 9.7627V11.7627H14.9998V9.7627H16.9998ZM14.9998 5.7627V7.7627H12.9998V5.7627H14.9998Z" fill="currentColor"/>
</svg>
