<svg width="20" height="19" viewBox="0 0 20 19" fill="none" xmlns="http://www.w3.org/2000/svg">
<path d="M9.99992 0.596191C15.0627 0.596191 19.1666 4.70011 19.1666 9.76286C19.1666 14.8256 15.0627 18.9295 9.99992 18.9295C4.93717 18.9295 0.833252 14.8256 0.833252 9.76286H2.66659C2.66659 13.8127 5.95009 17.0962 9.99992 17.0962C14.0498 17.0962 17.3333 13.8127 17.3333 9.76286C17.3333 5.71302 14.0498 2.42952 9.99992 2.42952C7.74125 2.42952 5.72092 3.45069 4.37617 5.05577L6.33325 7.01286H0.833252V1.51286L3.07634 3.75502C4.75659 1.82086 7.23525 0.596191 9.99992 0.596191ZM10.9166 5.17952V9.38244L13.8893 12.3552L12.5923 13.6523L9.08325 10.1414V5.17952H10.9166Z" fill="currentColor"/>
</svg>
