<svg width="20" height="19" viewBox="0 0 20 19" fill="none" xmlns="http://www.w3.org/2000/svg">
<path d="M10.9724 6.19667L12.2695 7.49375C12.8654 8.0896 13.3381 8.797 13.6606 9.57555C13.9831 10.3541 14.1491 11.1885 14.1491 12.0313C14.1491 12.874 13.9831 13.7084 13.6606 14.487C13.3381 15.2655 12.8654 15.9729 12.2695 16.5688L11.945 16.8923C10.7416 18.0958 9.10937 18.7718 7.40747 18.7718C5.70558 18.7718 4.07339 18.0958 2.86997 16.8923C1.66655 15.6889 0.990479 14.0567 0.990479 12.3548C0.990479 10.6529 1.66655 9.02076 2.86997 7.81734L4.16706 9.11442C3.7384 9.53934 3.39788 10.0447 3.16507 10.6016C2.93226 11.1585 2.81174 11.7559 2.81042 12.3595C2.80909 12.963 2.927 13.5609 3.15737 14.1188C3.38774 14.6767 3.72604 15.1836 4.15283 15.6104C4.57963 16.0372 5.08652 16.3755 5.64441 16.6059C6.2023 16.8362 6.8002 16.9541 7.40377 16.9528C8.00735 16.9515 8.60473 16.831 9.1616 16.5982C9.71848 16.3653 10.2239 16.0248 10.6488 15.5962L10.9733 15.2717C11.8326 14.4122 12.3152 13.2466 12.3152 12.0313C12.3152 10.8159 11.8326 9.65034 10.9733 8.79083L9.67622 7.49375L10.9733 6.19759L10.9724 6.19667ZM17.1306 11.7068L15.8344 10.4106C16.2631 9.98566 16.6036 9.48026 16.8364 8.92338C17.0692 8.36651 17.1897 7.76913 17.191 7.16555C17.1924 6.56197 17.0744 5.96408 16.8441 5.40619C16.6137 4.8483 16.2754 4.34141 15.8486 3.91461C15.4218 3.48781 14.9149 3.14952 14.357 2.91915C13.7992 2.68878 13.2013 2.57087 12.5977 2.57219C11.9941 2.57352 11.3967 2.69404 10.8398 2.92685C10.283 3.15966 9.77756 3.50017 9.35264 3.92883L9.02814 4.25333C8.1689 5.11284 7.6862 6.27842 7.6862 7.49375C7.6862 8.70909 8.1689 9.87467 9.02814 10.7342L10.3252 12.0313L9.02814 13.3274L7.73197 12.0313C7.13606 11.4354 6.66335 10.728 6.34085 9.94946C6.01834 9.17091 5.85234 8.33646 5.85234 7.49375C5.85234 6.65105 6.01834 5.8166 6.34085 5.03805C6.66335 4.2595 7.13606 3.5521 7.73197 2.95625L8.05647 2.63267C9.25989 1.42925 10.8921 0.753174 12.594 0.753174C14.2959 0.753174 15.9281 1.42925 17.1315 2.63267C18.3349 3.83609 19.011 5.46828 19.011 7.17017C19.011 8.87206 18.3349 10.5042 17.1315 11.7077L17.1306 11.7068Z" fill="#8A879B"/>
</svg>
