<svg width="14" height="15" viewBox="0 0 14 15" fill="none" xmlns="http://www.w3.org/2000/svg">
<path d="M7 14.8013C3.1339 14.8013 0 11.6674 0 7.80127C0 3.93517 3.1339 0.80127 7 0.80127C10.8661 0.80127 14 3.93517 14 7.80127C14 11.6674 10.8661 14.8013 7 14.8013ZM5.397 13.1682C4.70639 11.7033 4.30631 10.1184 4.2189 8.50127H1.4434C1.57961 9.5785 2.02574 10.593 2.7276 11.4215C3.42945 12.2499 4.35681 12.8568 5.397 13.1682ZM5.621 8.50127C5.7267 10.2086 6.2146 11.8123 7 13.2277C7.80662 11.7749 8.27781 10.1599 8.379 8.50127H5.621ZM12.5566 8.50127H9.7811C9.69369 10.1184 9.29361 11.7033 8.603 13.1682C9.64319 12.8568 10.5705 12.2499 11.2724 11.4215C11.9743 10.593 12.4204 9.5785 12.5566 8.50127ZM1.4434 7.10127H4.2189C4.30631 5.48412 4.70639 3.89925 5.397 2.43437C4.35681 2.74579 3.42945 3.3526 2.7276 4.18108C2.02574 5.00956 1.57961 6.02404 1.4434 7.10127ZM5.6217 7.10127H8.3783C8.27733 5.44269 7.80638 3.82774 7 2.37487C6.19338 3.82768 5.72219 5.44263 5.621 7.10127H5.6217ZM8.603 2.43437C9.29361 3.89925 9.69369 5.48412 9.7811 7.10127H12.5566C12.4204 6.02404 11.9743 5.00956 11.2724 4.18108C10.5705 3.3526 9.64319 2.74579 8.603 2.43437Z" fill="#FFB700"/>
</svg>
