<svg width="12" height="16" viewBox="0 0 12 16" fill="none" xmlns="http://www.w3.org/2000/svg">
<path d="M11.7318 15.4897H10.2989V14.0567C10.2989 13.4867 10.0724 12.94 9.66931 12.5369C9.26622 12.1338 8.71951 11.9073 8.14946 11.9073H3.85065C3.28059 11.9073 2.73388 12.1338 2.33079 12.5369C1.9277 12.94 1.70125 13.4867 1.70125 14.0567V15.4897H0.268311V14.0567C0.268311 13.1066 0.645734 12.1955 1.31755 11.5236C1.98937 10.8518 2.90055 10.4744 3.85065 10.4744H8.14946C9.09955 10.4744 10.0107 10.8518 10.6826 11.5236C11.3544 12.1955 11.7318 13.1066 11.7318 14.0567V15.4897ZM6.00005 9.04146C5.43553 9.04146 4.87653 8.93027 4.35497 8.71424C3.83342 8.4982 3.35952 8.18155 2.96034 7.78237C2.56116 7.38319 2.24451 6.90929 2.02847 6.38774C1.81244 5.86618 1.70125 5.30718 1.70125 4.74266C1.70125 4.17813 1.81244 3.61913 2.02847 3.09757C2.24451 2.57602 2.56116 2.10212 2.96034 1.70294C3.35952 1.30376 3.83342 0.98711 4.35497 0.771075C4.87653 0.55504 5.43553 0.443848 6.00005 0.443848C7.14017 0.443848 8.23359 0.896756 9.03977 1.70294C9.84595 2.50912 10.2989 3.60254 10.2989 4.74266C10.2989 5.88277 9.84595 6.97619 9.03977 7.78237C8.23359 8.58855 7.14017 9.04146 6.00005 9.04146ZM6.00005 7.60853C6.76013 7.60853 7.48907 7.30659 8.02653 6.76913C8.56398 6.23168 8.86592 5.50273 8.86592 4.74266C8.86592 3.98258 8.56398 3.25363 8.02653 2.71618C7.48907 2.17872 6.76013 1.87678 6.00005 1.87678C5.23998 1.87678 4.51103 2.17872 3.97358 2.71618C3.43612 3.25363 3.13418 3.98258 3.13418 4.74266C3.13418 5.50273 3.43612 6.23168 3.97358 6.76913C4.51103 7.30659 5.23998 7.60853 6.00005 7.60853Z" fill="#FFB700"/>
</svg>
