<svg width="18" height="19" viewBox="0 0 18 19" fill="none" xmlns="http://www.w3.org/2000/svg">
<path d="M15.3708 3.14386C13.6049 1.31011 11.1024 0.252613 8.35075 0.545113C4.37492 0.961363 1.10325 4.31386 0.659088 8.44261C0.0632547 13.8989 4.12575 18.5001 9.24992 18.5001C12.7058 18.5001 15.6741 16.3964 17.0608 13.3701C17.4074 12.6164 16.8874 11.7501 16.0858 11.7501C15.6849 11.7501 15.3058 11.9751 15.1324 12.3464C13.9083 15.0801 10.9724 16.8126 7.76575 16.0701C5.36075 15.5189 3.42159 13.4826 2.91242 10.9851C2.00242 6.62011 5.19825 2.75011 9.24992 2.75011C11.0483 2.75011 12.6516 3.52636 13.8216 4.75261L12.1858 6.45136C11.5033 7.16011 11.9799 8.37511 12.9441 8.37511H16.8333C17.4291 8.37511 17.9166 7.86886 17.9166 7.25011V3.21136C17.9166 2.21011 16.7466 1.70386 16.0641 2.41261L15.3708 3.14386Z" fill="#8A879B"/>
</svg>
