<svg width="12" height="13" viewBox="0 0 12 13" fill="none" xmlns="http://www.w3.org/2000/svg">
<path d="M5.994 0.128418C2.682 0.128418 0 2.81642 0 6.12842C0 9.44042 2.682 12.1284 5.994 12.1284C9.312 12.1284 12 9.44042 12 6.12842C12 2.81642 9.312 0.128418 5.994 0.128418ZM6 10.9284C3.348 10.9284 1.2 8.78042 1.2 6.12842C1.2 3.47642 3.348 1.32842 6 1.32842C8.652 1.32842 10.8 3.47642 10.8 6.12842C10.8 8.78042 8.652 10.9284 6 10.9284ZM8.1 5.52842C8.598 5.52842 9 5.12642 9 4.62842C9 4.13042 8.598 3.72842 8.1 3.72842C7.602 3.72842 7.2 4.13042 7.2 4.62842C7.2 5.12642 7.602 5.52842 8.1 5.52842ZM3.9 5.52842C4.398 5.52842 4.8 5.12642 4.8 4.62842C4.8 4.13042 4.398 3.72842 3.9 3.72842C3.402 3.72842 3 4.13042 3 4.62842C3 5.12642 3.402 5.52842 3.9 5.52842ZM6 9.42842C7.398 9.42842 8.586 8.55242 9.066 7.32842H2.934C3.414 8.55242 4.602 9.42842 6 9.42842Z" fill="#FFB700"/>
</svg>
