<svg width="12" height="13" viewBox="0 0 12 13" fill="none" xmlns="http://www.w3.org/2000/svg">
<path d="M2.36 2.30013C2.4 2.89346 2.5 3.47346 2.66 4.0268L1.86 4.8268C1.58667 4.0268 1.41333 3.18013 1.35333 2.30013H2.36ZM8.93333 10.3135C9.5 10.4735 10.08 10.5735 10.6667 10.6135V11.6068C9.78667 11.5468 8.94 11.3735 8.13333 11.1068L8.93333 10.3135ZM3 0.966797H0.666667C0.3 0.966797 0 1.2668 0 1.63346C0 7.89346 5.07333 12.9668 11.3333 12.9668C11.7 12.9668 12 12.6668 12 12.3001V9.97346C12 9.6068 11.7 9.3068 11.3333 9.3068C10.5067 9.3068 9.7 9.17346 8.95333 8.9268C8.88667 8.90013 8.81333 8.89346 8.74667 8.89346C8.57333 8.89346 8.40667 8.96013 8.27333 9.0868L6.80667 10.5535C4.92 9.5868 3.37333 8.0468 2.41333 6.16013L3.88 4.69346C4.06667 4.5068 4.12 4.2468 4.04667 4.01346C3.8 3.2668 3.66667 2.4668 3.66667 1.63346C3.66667 1.2668 3.36667 0.966797 3 0.966797Z" fill="#FFB700"/>
</svg>
