<svg width="17" height="17" viewBox="0 0 17 17" fill="none" xmlns="http://www.w3.org/2000/svg">
<path d="M8.91016 16.3213C4.49176 16.3213 0.910156 12.7397 0.910156 8.32129C0.910156 3.90289 4.49176 0.321289 8.91016 0.321289C13.3286 0.321289 16.9102 3.90289 16.9102 8.32129C16.9102 12.7397 13.3286 16.3213 8.91016 16.3213ZM8.91016 14.7213C10.6075 14.7213 12.2354 14.047 13.4356 12.8468C14.6359 11.6465 15.3102 10.0187 15.3102 8.32129C15.3102 6.6239 14.6359 4.99604 13.4356 3.79581C12.2354 2.59557 10.6075 1.92129 8.91016 1.92129C7.21277 1.92129 5.58491 2.59557 4.38467 3.79581C3.18444 4.99604 2.51016 6.6239 2.51016 8.32129C2.51016 10.0187 3.18444 11.6465 4.38467 12.8468C5.58491 14.047 7.21277 14.7213 8.91016 14.7213ZM9.71016 8.32129H12.9102V9.92129H8.11016V4.32129H9.71016V8.32129Z" fill="#FFB700"/>
</svg>
