<svg width="16" height="14" viewBox="0 0 16 14" fill="none" xmlns="http://www.w3.org/2000/svg">
<path d="M1.66507 0.793457H14.3351C14.5218 0.793457 14.7008 0.867617 14.8328 0.999621C14.9648 1.13163 15.039 1.31066 15.039 1.49735V12.7596C15.039 12.9463 14.9648 13.1253 14.8328 13.2573C14.7008 13.3893 14.5218 13.4635 14.3351 13.4635H1.66507C1.47839 13.4635 1.29935 13.3893 1.16735 13.2573C1.03534 13.1253 0.961182 12.9463 0.961182 12.7596V1.49735C0.961182 1.31066 1.03534 1.13163 1.16735 0.999621C1.29935 0.867617 1.47839 0.793457 1.66507 0.793457ZM13.6312 3.77654L8.05075 8.77415L2.36896 3.76105V12.0557H13.6312V3.77654ZM2.72865 2.20123L8.04301 6.89054L13.2806 2.20123H2.72865Z" fill="#FFB700"/>
</svg>
