<svg width="14" height="15" viewBox="0 0 14 15" fill="none" xmlns="http://www.w3.org/2000/svg">
<path d="M8.87894 4.54474L11.4837 1.93853H8.10525V0.464844H14V6.35959H12.5263V2.98043L9.9201 5.58664C10.7703 6.70113 11.1652 8.09707 11.0249 9.49179C10.8845 10.8865 10.2194 12.1758 9.16424 13.0985C8.10904 14.0213 6.74261 14.5086 5.34163 14.4618C3.94065 14.4149 2.60982 13.8374 1.61863 12.8462C0.62743 11.855 0.0499394 10.5242 0.0030902 9.12321C-0.043759 7.72223 0.443534 6.3558 1.3663 5.3006C2.28906 4.2454 3.57834 3.58029 4.97306 3.43996C6.36778 3.29962 7.76371 3.69454 8.8782 4.54474H8.87894ZM5.5263 12.9912C6.60113 12.9912 7.63193 12.5642 8.39195 11.8042C9.15197 11.0442 9.57894 10.0134 9.57894 8.93854C9.57894 7.86372 9.15197 6.83291 8.39195 6.07289C7.63193 5.31288 6.60113 4.8859 5.5263 4.8859C4.45147 4.8859 3.42067 5.31288 2.66065 6.07289C1.90064 6.83291 1.47366 7.86372 1.47366 8.93854C1.47366 10.0134 1.90064 11.0442 2.66065 11.8042C3.42067 12.5642 4.45147 12.9912 5.5263 12.9912Z" fill="#FFB700"/>
</svg>
