<svg width="12" height="13" viewBox="0 0 12 13" fill="none" xmlns="http://www.w3.org/2000/svg">
<path d="M0 12.5034C0 11.291 0.481631 10.1282 1.33894 9.27093C2.19625 8.41362 3.35901 7.93199 4.57143 7.93199C5.78385 7.93199 6.94661 8.41362 7.80392 9.27093C8.66123 10.1282 9.14286 11.291 9.14286 12.5034H8C8 11.5941 7.63878 10.722 6.99579 10.0791C6.35281 9.43607 5.48074 9.07485 4.57143 9.07485C3.66212 9.07485 2.79004 9.43607 2.14706 10.0791C1.50408 10.722 1.14286 11.5941 1.14286 12.5034H0ZM4.57143 7.36056C2.67714 7.36056 1.14286 5.82628 1.14286 3.93199C1.14286 2.0377 2.67714 0.503418 4.57143 0.503418C6.46571 0.503418 8 2.0377 8 3.93199C8 5.82628 6.46571 7.36056 4.57143 7.36056ZM4.57143 6.2177C5.83429 6.2177 6.85714 5.19485 6.85714 3.93199C6.85714 2.66913 5.83429 1.64628 4.57143 1.64628C3.30857 1.64628 2.28571 2.66913 2.28571 3.93199C2.28571 5.19485 3.30857 6.2177 4.57143 6.2177ZM9.30514 8.3337C10.1082 8.69538 10.7897 9.28127 11.2678 10.021C11.7458 10.7607 12.0001 11.6227 12 12.5034H10.8571C10.8573 11.8428 10.6666 11.1963 10.3081 10.6415C9.9495 10.0867 9.43833 9.64722 8.836 9.37599L9.30457 8.3337H9.30514ZM8.912 1.88228C9.48773 2.11959 9.97998 2.52258 10.3263 3.04012C10.6726 3.55766 10.8574 4.16641 10.8571 4.78913C10.8574 5.57332 10.5644 6.32926 10.0357 6.90846C9.50708 7.48766 8.78095 7.84826 8 7.91942V6.76913C8.4234 6.70849 8.8162 6.51371 9.12075 6.21339C9.42529 5.91307 9.62554 5.52303 9.69209 5.10052C9.75864 4.67802 9.68799 4.2453 9.49051 3.86591C9.29302 3.48651 8.97911 3.18042 8.59486 2.99256L8.912 1.88228Z" fill="#FFB700"/>
</svg>
