<svg width="14" height="15" viewBox="0 0 14 15" fill="none" xmlns="http://www.w3.org/2000/svg">
<path d="M6.3851 0.80127L13.048 1.75368L13.9997 8.41721L7.81271 14.6042C7.68648 14.7304 7.51531 14.8013 7.33684 14.8013C7.15836 14.8013 6.98719 14.7304 6.86097 14.6042L0.197436 7.94067C0.0712523 7.81445 0.000366211 7.64328 0.000366211 7.4648C0.000366211 7.28632 0.0712523 7.11515 0.197436 6.98893L6.3851 0.80127ZM6.86097 2.22955L1.62505 7.4648L7.33684 13.1759L12.5721 7.94067L11.8586 2.94302L6.86097 2.22955ZM8.2879 6.51306C8.0354 6.26046 7.89358 5.91791 7.89364 5.56074C7.89367 5.3839 7.92853 5.20879 7.99624 5.04541C8.06395 4.88204 8.16317 4.7336 8.28824 4.60857C8.41331 4.48354 8.56179 4.38437 8.72519 4.31672C8.88859 4.24907 9.06371 4.21427 9.24056 4.2143C9.59772 4.21437 9.94022 4.35631 10.1927 4.6089C10.4452 4.8615 10.5871 5.20406 10.587 5.56122C10.5869 5.91838 10.445 6.26089 10.1924 6.5134C9.9398 6.7659 9.59724 6.90772 9.24008 6.90766C8.88292 6.9076 8.54041 6.76566 8.2879 6.51306Z" fill="#FFB700"/>
</svg>
